<mxfile host="www.draw.io" modified="2019-11-11T15:51:24.850Z" agent="Mozilla/5.0 (Macintosh; Intel Mac OS X 10.11; rv:71.0) Gecko/20100101 Firefox/71.0" etag="Dq-XMWuJ2lg4oSCZt5qA" version="12.2.3" type="github" pages="1">
  <diagram name="Page-1" id="1622d65d-c77d-c4b6-e0e7-3c11208c8684">
    <mxGraphModel dx="1100" dy="717" grid="1" gridSize="10" guides="1" tooltips="1" connect="1" arrows="1" fold="1" page="1" pageScale="1.5" pageWidth="1169" pageHeight="826" background="#ffffff" math="0" shadow="0">
      <root>
        <mxCell id="0" style=";html=1;"/>
        <mxCell id="1" style=";html=1;" parent="0"/>
        <mxCell id="fv5T4pJJgaqn6n8KdZ1a-1" value="" style="shape=mxgraph.signs.healthcare.mri;html=1;fillColor=#000000;strokeColor=none;verticalLabelPosition=bottom;verticalAlign=top;align=center;" parent="1" vertex="1">
          <mxGeometry x="86.5" y="20" width="182" height="173" as="geometry"/>
        </mxCell>
        <mxCell id="fv5T4pJJgaqn6n8KdZ1a-2" value="" style="shape=image;html=1;verticalAlign=top;verticalLabelPosition=bottom;labelBackgroundColor=#ffffff;imageAspect=0;aspect=fixed;image=https://cdn0.iconfinder.com/data/icons/education-340/100/Tilda_Icons_1ed_brain-128.png" parent="1" vertex="1">
          <mxGeometry x="1100" y="540" width="128" height="128" as="geometry"/>
        </mxCell>
        <mxCell id="fv5T4pJJgaqn6n8KdZ1a-4" value="" style="shape=image;html=1;verticalAlign=top;verticalLabelPosition=bottom;labelBackgroundColor=#ffffff;imageAspect=0;aspect=fixed;image=https://cdn2.iconfinder.com/data/icons/icontober/64/Inkcontober_Brain_Divide-128.png" parent="1" vertex="1">
          <mxGeometry x="1050" y="300" width="128" height="128" as="geometry"/>
        </mxCell>
        <mxCell id="fv5T4pJJgaqn6n8KdZ1a-5" value="" style="shape=mxgraph.signs.healthcare.neurology;html=1;fillColor=#000000;strokeColor=none;verticalLabelPosition=bottom;verticalAlign=top;align=center;" parent="1" vertex="1">
          <mxGeometry x="910" y="560" width="111" height="130" as="geometry"/>
        </mxCell>
        <mxCell id="wo09McxVOx4tThuS4POu-1" value="&lt;h1&gt;Denoising and movement correction&lt;/h1&gt;&lt;p&gt;Combined denoising algorithm from NLSAM with movement correction from FSL-eddy.&lt;/p&gt;&lt;p&gt;In detail, the movement correction (eddy) is applied between the steps of noise correction and denoising. The &quot;repol&quot; option was used for eddy, removing any slices deemed as outliers and replacing them with predictions made by the Gaussian Process. &lt;br&gt;&lt;/p&gt;" style="text;html=1;strokeColor=none;fillColor=none;spacing=5;spacingTop=-20;whiteSpace=wrap;overflow=hidden;rounded=0;" vertex="1" parent="1">
          <mxGeometry x="400" y="400" width="400" height="190" as="geometry"/>
        </mxCell>
        <mxCell id="wo09McxVOx4tThuS4POu-2" value="&lt;h1&gt;Raw DWI data&lt;br&gt;&lt;/h1&gt;&lt;div&gt;&lt;p&gt;64 diffusion directions with b-values 900mm/s2&lt;br&gt;1 non diffusion-weighted volumes&lt;/p&gt;&lt;/div&gt;" style="text;html=1;strokeColor=none;fillColor=none;spacing=5;spacingTop=-20;whiteSpace=wrap;overflow=hidden;rounded=0;" vertex="1" parent="1">
          <mxGeometry x="400" y="257.5" width="400" height="95" as="geometry"/>
        </mxCell>
        <mxCell id="wo09McxVOx4tThuS4POu-3" value="" style="shape=image;verticalLabelPosition=bottom;labelBackgroundColor=#ffffff;verticalAlign=top;aspect=fixed;imageAspect=0;image=data:image/png,iVBORw0KGgoAAAANSUhEUgAAAggAAADcCAYAAAAVzFlzAAAgAElEQVR4nOy92XOV95U2iq0JNA9oFghhIBgZbBzsYGyMwZjZASMhAZIwEppAaEDzPGyxNUtICM1CSMyDAWNi4s9xOul2d+IvXafr1KlzzkVXper8E33RffOci9RafvaPd5P4u/hEqn8XT7HZevc7rnetZ42/JUuWLIGFhYWFhYWFhYFFPwELCwsLCwuLlw+LfgIvJf7lX/4FP/zww6Kfh4WF4F//9V9RXl6+6OdhYfG/E//1X/+16Ofw3xiLfgIvJZYtW4b//M//XPTzsLBg3L17d9HPwcLifxcCAwPxH//xH4t+Hv+Nsegn8FKioaEBv/jFLxb9PCwsBEuXLsX4+Piin4eFxf8u+Pj4LPo5/DfHop+AhYWFhYWFxcuHRT8BCwsLCwsLi5cPi34CFhYWFhYWFi8fFv0ELCwsLCwsLF4+LPoJWFhYWFhYWLx8WPQTsLCwsLCwsHj5sOgnYGFhYWFhYfHyYdFPwMLCwsLCwuLlw6KfgIWFhYWFhcXLh0U/AQsLCwsLC4uXD4t+AhYWFhYWFhYvHxb9BCwsLCwsLCxePiz6CVhYWFhYWFi8fFj0E7CwsLCwsLB4+bDoJ2BhYWFhYWHx8mHRT8DCwsLCwsLi5cOin4CFhYWFhYXFy4dFPwELCwsLCwuLlw+LfgIWFhYWFhYWLx8W/QQsLCwsLCwsXj4s+glYWFhYWFhYvHxY9BOwsLCwsLCwePmw6CdgYWFhYWFh8fJh0U/AwsLCwsLC4uXDop+AhYWFhYWFxcuHRT8BCwsLCwsLi5cPi34CFhYWFhYWFi8fFv0ELCwsLCwsLF4+LPoJWFhYWFhYWLx8WPQTsLCwsLCwsHj5sOgnYGFhYWFhYfHyYdFPwMLCwsLCwuLlw6KfgIWFhYWFhcXLh0U/AQsLCwsLC4uXD4t+AhYWFhZ/F/Dx8YGPjw98fX3x6quvKvz8/ODr6wtfX1/dxsfHB35+fvDx8cGrr76KV155BX5+fvD399ff+fj4ICAgAP7+/h7byj4F/v7+un8+hq+vLwICAhAQEKD7CggI8PhtYGAgli5diqVLl+p3sg9fX1/4+/tj6dKlCA4O1vMIDg7WffHv5Fz9/f317+bx+G9ybNlm2bJlHtfL1ya/CwwMRHBwsJ6Dv9sfwcHBCAwM1PPm8/P398eyZcuwbNkyBAYG6n75vOX6Zd/ezjUwMFDPMTQ0VP/P18zPRu6Zv78/goKC9DjLli3Ta5Dr5/sp35myIs+Ct5XnJNcux/bx8dFjiyzJtrINy6iPjw9eeeUVvPLKK/qd/J//xtssWewXzsLCwuLvBZYgWIJgCYKFhYWFxXMQRS0KWhQrG3ZW+mwI2QgyaTBJBRuMvwbZpxhZNuS8HzlvNrLmMfg3YpiEdLBRE0MaEBCg++Vt/P39PYwtG2Mxvn5+fggJCfEwyMHBwQgJCfEgHD4+PvDp/Ms5LFu2TI/hZPxNCKkQyP95P3zeQjAEYWFhHuSA74d535isyDOWzywDJsQQy/XJvtnYs0GX+yjPm5+jGHY+Vz6WKZsmQWB5tgTBwsLC4ifCyYCbCtc0+GK4TQIh/2ePWoxoYGCgh2ExDb4YNV9fX4/PfFwxWmykhSCIUWcvmg05G2CGGFIxsnwMJgjsAQcFBSnE+Iq3LYZb9inXLr8PCgqCb+dfrjE0NNTjmExU2DDL93wP5HemsTYNO+/D2zkxaeD7wcdmosKyYpIq81mYMsWRBZN4mNfBUQGONglMIsAyK3JpRsaWLPYLZ2FhYfH3AlasZrj/RQSBFa+5vanwxeiYYXsngiDevhNBYCMm+1m2bJmeD5MSJ6+YjYsTQTDD5mxs+W/slYuxZYIQFBTkQTB430wQQkJCPAy9N4Ig52cSBG+G1fT0mfAwSXAiXEwE+Nh8/UwQOFUkz/SvEQS+/2ZEir93IggsfxyJEDl0iiLwd0sW+4WzsLCw+HsBK1Enb+xF9Qim0pdwrpAN8QLZqHsLUbMR5JC7adDNXDwfWwxXYGAgQkNDERQU5GEk+VzlPAIDAxESEqKpAKcaBMm7O+Xeud5BSILk+5nQCIKCguB38cc6Cq4zYG+dSQgb/9DQUE1lcHTEKU3CtQlyrsuWLUNQUNBzhEd+w2TBTDVwusYpGmOmLZj8mMSTnx+nJ5jcOBE6JrJs+OV7pyiCJQgWFhYW/wtgBWvmiU0l60QiTDLhRBq4xsHJsLDB5n0wQTDrEdjwsRFyKpwzwZ6yn5+fpgtMr9ysDWCP16xVYKPLZEAK+ziNITUIZrGkU1TjRTUHHGFgcsHnIb/h6xZyIfeZUwhMpISwCSlwIjxOz5MJCUcGmGTys2DZ4egA32Pe3ikt9iLyynK8ZLFfOAsLC4u/F5hV3uKJ/VSC8KKogpO3yAbf9BCdCIK3dAHn4ZloiPE0Q+ZiZMQA82fT4L2IIPD/uSDPqfiRsXTpUvhe9PXI+3tLyfB5SUrCPFdOA8g+2aBKusOsMeB7axY5MingiIBTGsN8Nk41CGbtAKeLvKWvmCBwNMMpXeGNHHCKwhIECwsLi58IU4lK+Neb0TfzyqLA2UibBIFTDKLouRjRDP87GRkzGuBEIszQtBh/iRDw7z3aDsl48rE5xO9ENEzyYKYFmDBIGiMoKAgB3QEICwvT44gB55oFhpxTeHi4hzGXY3AEQCICsk+ONghZ4JoCs9bATDE4kTJv4X+OBsgzMosXnX7vRMSYRJgRB6d6BG+RA5ZrSxAsLCwsfgJEiXLRIRMEJ4PPXp237bx5/vx/OQc20mwMTK+fPW2TFMh3ZlU8e8zccWDm900D761gkc/DKcwvxzVbGLkgUOYg8P0IDQ312OZFNQ/m/TSLLrljgb1uIUkc+eCUgxkdMAma0/Xw83KKIAlJMedkOMmEKTtM1ryRVTNa4G0+gu1isLCwsPiJ4Ipvp1ywt3wv1xWYBMEkCqZxl//LsfnvvI05c8AM7XObnFOKQfYhHrZEEszwPnuyQhDMUL2ZW+djs1Hn75hIsPH3c/vpech2XFDI58dkhT+bYX3+LRtx+SwRBCYZZiEhkx65BnmW3u6HadR5ez4vb4bd3MZpvy+KFPD3ZjcDwxYpWlhYWPxEONUWcOeC6Q2aXquTcTCVt2nIzeiD6ZWzR8+GmY2i6c2KQTK9Xy7u44JBp9C5SRB4/3xOToWPZtieCQifa2BgoBIE7npggiDHF+Igv5VzNyMJDIkSMMGQaAL/ngkCG3/z+vgZeSMITobf7EJh+XD6nUnw+Huz64H355TecCIMliBYWFhY/EQwKeDcLXv/3EZmRg+cIglMBsyohGxnpiecQupmmNnJYEvOXQwSt/3JvzyjQAygkAXuMGDDbFbtyzlJ5OPVV1/1SAvI34SIiMcu7Y/ciSApBjF8cq28H6djBwUFISoqSmsRJNLA94+JlKRXuGiSIwqCkJAQj4JFpzoASRXI38378corrzxHKFhumJA4pYiEFDhFFl5EQs0x3rKNOSzJEgQLCwuLnwgOwXpTvByqNb08b+FeUfBMLJhIiAERw2IW3pkEgX9rDvsxvWj2iHm/TE6cOgz4e9Pwm2kFM8LAxxOyIQSE1zQIDg7WOQhCVEJDQz3uq9wT8xp8fX11DgJfPxMEJjlslDkSIfdDyBOvv2DWI3hL8XAxolNqiiNMYrCZDHEq4kX1LmzsnbpozPQE19I41SEsWewXzsLCwuLvBd7G2cr3osDN2flm4Zg3EsBkgY0BEwTTcLFBZKMkvzXbBk0jZubLTYLA0QQxkhKa589O3rbZxcAeOnchiOENCQl5Lk3Ag5JCQ0MRHh7ukWbheyLpC+lm4EFJPN9AtuEUAxMEmdrI95nnNHCUwimtY5IFkQfpnODnanYrvIggmFGHv4UgMBE1UxIiu5xWsF0MFhYWFv8LcPLMnGbcswI2awWcjIJAiIcYPvZuOSJg1itwTtz06DnKwJ/Ze+YIhJ/fXxZScvKGzZoHpwI/05CysRdCYHroYWFhHmSDowlCEGSKY1hYmEfEwayv4OgAf5Z76xSB4dQDF0IKODVgFlF6i4yYhEuOZXYoyLPgWgCWC7N2wCkiwJEnk4w6yZ3TvA6nlR2XLPYLZ2FhYfH3Am/L4zp5cmIAnIrA2PiaHjvnoAV8DPaeuaiOvXwmDmxsODxuFgSKR2zOO5Blj3ktBbPTgUPtEgmQ0L78XUiC7CcoKAgRERFYvny5xzHYQ3/11Vd1UJKfnx/CwsIQFRX1XETDnKDoVC8hRIH3zxEYJlYSrXBac4IjKmYBJ6cCnLoKzIJGp+iBmXrgCARPa2RSwATGrHlwij44kVmnlNmSxX7hLCwsLP5eYAmCJQiWIFhYWFhYPIcXpRLMHLAY8r8WJuYwP1fqc2ifjTq3+HGxHhvpV1555bkphUIAvIXB2aCyEWWyIQs6mS2FPItASACH+AUREREIDQ1FcHDwc2QnPDwcERERz08w7P7LJEUuaOQlpENDQxEWFqbbhIeHIzw8HIGBgWps5bMQAr7nTIbMGgKze4DTOOb1mekip7QMEw5TBlg+uIaBixx5v95aN7kmhu+vmZJ4EVkQLFnsF87CwsLi7wXe2sdeZPzZ2+NJjNziKN48t5uxd2u247FRMivTnYiDnI94yfI7bv3jfDobQXOlRTHeXMjHnjQbbCEEMjZZjse5dolECEHgyMTSpUt1uWdpkxSjx5ECrn8IDQ3Vbc17JeSHDbxp8OXamACYBIift1Pbp9RoyP3mIkU28PK8OaJhkgwzCsCkxltdApMCcwiSWbzI0QfutLA1CBYWFhY/AZYgWIJgCYKFhYWFxXPgEL4TQTBDw/x/s8ZA/m6GpDmU7dR94JQTX7p0qUeO2zwHNlz8e6kTMCvpJeUgxtfpeFKfIPUDYigjIiI8jKMQBDbGYqQjIyMRGxuL8PBwj84HrqUQgsDnEB0drf+PjIz0SKdERUUhKioKoaGhiIqKQlhYGPz9fxzEJK2UPCmRiYB8Dg8PV5Ii9QjmQlFmysGpc4FTGmZ9gJmG4HSUyAHLjilHTkSRj8FEgOV1yZIlHvsxWyltisHCwsLiJ8IpYmAOuTFrE1gBcyEZEwgxOkwW2GvliICZK3ciBRxpYMNueqFsXNgT5+gA75u3YS8+JCREDbPZghgWFobQ0FA1ulKDsHXrVrz11lvYuHEjNmzYgISEBMTHx3t4+KGhoQjuD0ZcXJzuPyoqCpGRkRpliI+PV6KybNkyLF++XAsfU1JSsHLlSsTGxup58LUJGRLyIsWV0kop9Q4SnZAiT3PJaI7ISAGmGbVxghjooKAgj+JUbsc0n7cTQTDJJD87limnwkmuceDCWl9fXyxZ7BfOwsLC4u8FliBYgmAJgoWFhYXFczAXuDHbwkwjzUqYtzMNuxm2NrsHpJZA8uJOYWoz98z7i46ORnR0tMfv2ZBImkFy6dIRwGSAz0EgtQZSYyBdDkwokpOTkZycjNWrV2Pbtm14/fXXsXz5cuTl5aGpqQnd3d1oaWlBZWUlKisrsXv3bo/UxZoba7Bv3z5kZmZi165deP/997Fv3z6cPn0ap0+fRnp6OuLi4hAXF6c1DHJNvBZDbGwsIiMjPWoq2FCaNRh+fn5aG2ESL6eaAiEDAiaKTkROCIB8J0befC7mvuQzp2zMtBWDSSoTBG+yygRkyWK/cBYWFhZ/L3AatWwqWy4GY8VremlioJyMvFNUgI2ESSZMsmAac/GMTeNhGnyJBojBkt/K8WJiYjwKEIV4iOGV6EBMTAxiYmKwe/dulJaWKhoaGlBSUoITJ07gwoULaGtrQ1dXF/r7+3HlyhWMjY2hvb0da9aswZo1axAfH48Pf/shmpub0d/fj76+PvT19aGhoQH9/f3o7+/H1NQUOjo60NHRgXfffRdJSUlISkrS6IVct5x3WFgYIiMjERkZibCwML0Xcu4yV4FbErkAkSM9UscREhLyXDSCyRWTLfP+8xoRpkxJlIafPY/1lv0sW7bMg3yyLJoFs/JZ5EX+b0YWLEGwsLCw+AmwBMESBEsQLCwsLCyeg7lSo5NS5cpzUfxmB4Np0KU+wexK4Op8zpvzgkROXQzewAOQOAcvhlH+xp/N9IeQgtjYWK01YAO6fv167Nq1C7t27UJFRQWam5vR2NiIiooK1NbWorq6GlVVVRgYGEBnZyfa2trQ2dmJ5uZmNDc3Y2RkBO+++y7effdd7Nq1Cx/+w4doaWlBU1MThoeHMTExAZfLBbfbDbfbjfb2dgwPD2N4eBgNDQ3Yvn07tm/fjuTkZMTHxyM+Ph5JSUlaGyBEIDg4GBEREYiJiUF0dLSHcQ8PD9cujaioKA/ixmtNMBFgUsXkS+oXZGEnNtJMGKTWQb5nI85kwySFUhPBsuRtaqf5mX8r++a2xyWcfxEBZqZhtlywEJqCYxZDcJ6F8yVmHs1sNeFcmAguj+uUfcn35upfwl4TExMVUVFRSExM1EKY2NhYxMbGIi4uDgkJCYiOjkZUVBSCgoIQExODuLg4/PznP0dKSgpSUlL0pYiOjtaCG7MAyGR0/PDMeyBKhCeCcZGLeT+cilH4GCwsrJA4L+nkqTgVVLEQs+Lj1i5Wliwrcmzxssz9m9uJYuQWG6fzMI/B23DBj5lTcyoqY+YsvdlmQZBTztCUZ/7srYfc7Nc2V6vjFeVEpsPCwpCQkICEhASsX78eqampSE1NRVxcHEJLQxETE4Ply5frPkVZx8bGIjU1Vb2vqKgo9W7kfHjJX5YhORc+V75vbADEYPn5+Xl4pSxnZnGVKFCzSI7hTSnyebD+MT0hp6IrkUORU3lX5HxYtr0tXMMy7ySHrFDNd4xJgVMemN9Rvn6TWPA9Zz3j6+urz4sNFN8/ricwjRJ7yVLAJ/LC1yH7FT0pxYhcELhx40Zs3LgRBQUFOHHihKKjowPt7e1oampCe3s76uvrUVZWhqamJtTX16Ourg5utxtVVVWorKxEQ0MDysrKUFZWhrS0NOz5lz0YGBhAVlYWXC4XLl26hJ6eHnR2dirBcLlccLlcuHHjBs6fP4/z588jNzcXjY2NOHfuHN5//32PGgR+V+Pj4xEXF6fXLe8g1wDwu89tkkwshICJzWJd7qRPWJZZbwhR4G3YHnDdAR/b1FMiH/IdkwhTD5oRKo0gWIJgCYIlCJYgWIJgCYIlCJYgPEcQnPJiTjtxym+YL6XTTWBh5ovjC2PlIp/5JebfiwAvXbr0OaMtYOUrOSc2rFx1y4pRfiuTwAIDA5VsJCcnY9WqVVi1ahU2bNiglbk8FIQXKZFBHTLRSyDbsHGX6+X2HlZ+3FLDD9ybITcVtdNzNWEaZicwGWBlKUqYFbGpoEXZOlWBe5sL7s3A8//Nz+b9kGtjWZX7YYaDzeuVl5XvCd8nll0fHx+Eh4frs2XlzEpX5E0qtJcvX46UlBS89tprWLduHdavX4+1a9eqEo6JiVGlExYWBt98X1XsIpvLly/X4yUkJCih2LJli5IFUf6i7MLCwlTeWO6YJPC7xzIYEhLiIV9yb4TkijLiZ8Hbs/IzSQQTRX72rPBetOjR0qVLnzPALHfe5MuUI5ZZ+X7Jkh8HJfHz5+sw98fH9UbITQMikDyzmcNmgslOhqkrnZ6pyCevdcAyKefFizqJkZT3QToGeIGl5ORk1NfXo76+HrW1tWhoaEBDQwOysrLQ2dmJ9vZ2Nf4XLlxAcXExysrK0NjYiPb2drS0tKCurg51dXUoKytT479z504c/NeDmJiYwK5du3D06FEcP34cw8PDmpIoKipCY2MjGhsbMTIygvHxcYyPj6OzsxNzc3OYm5vDwsICdu/ejXXr1j13P+QaTLvA93Hp0r+sIxEVFYWIiAiPd5onKfL6EE4OIjtspuGX58eLX4l8sE5ip57lkdsuzedr2lLz3ZH/87H8/Px+jCCIMMsJsSdqvrj8YpgGTfbDgurEpPgBsIJij06MphjjlJQUrFixAitWrMDq1as1OhASEuKxQIeTty09sJJTEsUaHh7u4e3wy8O5KmaHISEhWgiTlJSE1157Da+99hrefPNNREREaKuNOQbUPCeBKGl+4LwdewOsWEwvhh+4Sbjkd+zRyPM0I0D82SlvJcqSV7MzvTVWjGY0wQT/jVvFnJS6qfBNkuotYsGCL7LICti8Tt4ne1NMZlmmJVIgz5Dll599bGwsEhISsGHDBmzevBlvvPEG1q1bh9DQUFUuZruch/df+GMOlAkoR9lYNtevX4/169djy5Yt2LBhA1atWuURsRBS7GSggoKC1ENcunSpx/mxUmT55veHDb9JRuW3LGtMxPi5cPTCdET4XeAIGl8TOyps/FlezH05fV6yxHPUMu/fJBsmEZHnKOfoRHzNc+X7wHLOhXVsfPieMYRchoWFeRhHefamcyOGT47BpEJaCSMiItSDjo6Oxrlz53Dp0iVcunQJJ06cQE1NDWpqalBXV4empiZFb28v6urqcPr0aRw+fBiFhYW4cOECioqK4HK5cPHiRXR0dKCiogIVFRVITU3Fkf/zCBYWFnDs2DF89NFH2LZtG8rKypCXl4e8vDwcP34cLS0taGlpQWdnp55Ha2srmpqa4HK5MDU1hdLSUhw6dAipqalqL5jIip2QAszg4GCEh4fr3AW5b/7+/h5EgI0x2xv+P78T/D6b5IHfD/49R5LkM9eJ8DGc5MoJZjSLI13qCFqCYAmCJQiWIFiCYAmCJQiWIHglCGZYzsyFyY+ZLPDFmsuIsvI0aw/ke7nJLJB+fn8Jf8rCHQkJCVi5ciVWrlyJ6OhoDW9JBao8SNm/1BNER0cjMTFRq1g5d5aQkIDk5GSsWLEC8fHxSE5ORmxsLKKiorB8+XKPtAQrYf5ejh0TE+MRTmbFLOHd6OhonSBmkiBTwTI4bcK1C/ysnHJQrNRMBcbPkg2hGRqV782qbfnMBIFDr2aKwczlyrFNYuEt7GsqWiazf61K1yQOJmHi3/JLKOE6NlBsrFmhOBE6Du9GREQoqV2/fr2SXLOlSsiEhHlFGSUlJamshYWFwb/gx/Ahpx5E4TEhCQgIUPmJiYnBypUrkZKSoucRFxeHyMhIj2OLEZH9/7WcNofa2UhxKJQJOG9v/oZD6ZyaNGWTdRPrK/O5sMzzs3WqNWCF6k3+zLSa0zYmSfUmv/L+S+eCr6+vnofIj7cQsilrPKDImy5hAscGhfW36Vwx6RTiII6TYN++fdi3bx9aW1vVMGdlZSEzMxOZmZkYGhpCQ0MDmpqaMDQ0hOHhYbS1teHcuXM4ePAgPvvsM6SnpyMzMxNutxu9vb24fPmyEoSsrCzs/5/7MTo6ik8//RR79uzB7t27cfDgQaSnpyM9PR0ZGRno7e1Fb28v2tvbMTExgYmJCbS3t2t9gnRMNDU1obq6WuslhBzJe+SUeg4LC9NUn9wPuX7ZllMR8lnsBRNffnZMpuV73o/5npgOoqQB2dkT2WcS4ERGzf87Ldb06quvYonpgckO+ce8DRt8/p5faIGZ95YXQY5hemBcCyCeVmpqqirIiIgIVYQ+Pj4ePa3i6SQlJWmPK+f/Zb8iAMuXL0d0dLQWLEpPrAiAgPfl4cmR8uKXz4lEpKam4s0338Trr7+u33H+Sl5GHx8fx6iD6Y05sUZWtKyUOELg7Zmaz/xFhpMjCBwBkDYwVqAmAXCKfsh3fGz2BM3IgNxvJ6GX/cqx2VA4wbwPbHhM0sFGjCNMIhPyPKX+ZPXq1Vi9ejWio6P1mTPRYBIhimf58uWIi4tDSkqKykFiYqIWIAYGBsK/wN+jlkG8OilqlLoYIc4iJ1FRUc8V/IaHh2uL1/r167Fx40YP4sEGhJUfKyC+Jn9/fw/5ZqNvRmpEduXv/FmeL//G6XmbZIEVpDdZZ1kyiamTo+SNIJhRBlN3eotqsTHga2MC5nSfvREEdhicfi9GieXOBHu9rPdEDqKionRbkavg4GCkp6ejuLgYxcXFqKmp0TqApqYmHD58GIcPH8bZs2fR0tKC1tZW9PX1YXx8HBcvXkR5eTmysrKQlpaGI0eOYM+ePcjOzsapU6cwOjqqbYv9/f3Y+fudcLlcOHr0KDIyMnD8+HFkZWUhOzsb2dnZOHnypNY83Lp1C7dv38bt27dRWlqKs2fPoqysTNsku7u7ceXKFZ3CmJSUpBECLj4UUiC1Omzj2K5xpJjfL/6enWde6ZLtn5+fn0dxIkcYWE5Z58u8CtM5YrlhPWpGJvnZizzzu+br6/sjQXAScm8EwSlEYSpR84TlpPmCTAENDQ3F8uXLERsbi8TERCQlJSElJcUj7CNM1tfXVz9LtEE8evmckJCgHj1HE2JjY5GSkoLVq1djzZo1WLFiBZKSklTJSgSCZ3+LoJiFLazo2etnBpmSkoK1a9di9erViImJ0YiGCAkXGbFyZjh5AMwsTYXDAmU+D6fn5hRucjLOTBA4SsB94mykuXCRwX3k5rH5OpzOwZvBYMUu6YO/RhD4hX+R7JohbzHsTAwjIyM1fSVpMS5WNZfHFUIRFhaG+Ph4pKamYvPmzVi7dq12z/ziF79Qbyc6OhrLipfpvoS8rly5UiNrCQkJHmRajh0dHe2RmpDwqBReCUGIiYnxCL86eUd8P8z0i7yTZkSR76tJCpw8HzMy5M0Td3o+3giC6dU7FS3+FILgDXw804MzjTcTcpP883Wx7uVUhWms2HFgQuuNIPDxmCAwEYiMjFQ9FBERocXaubm5KCgoQEFBASoqKjSN0NLSot59Xl4e6uvr0dTUpMOQhCCcOHHCgyAcPnwYR44cQVdXlxYaXrp0CZ/88yfo6+tDdnY2cnNzcebMGeTk5GiU4tixY0oQbt68iVu3buHWrVtobGxESUkJKioq0N7ejubmZvT09ODKlSvIz89Hfn4+3n77bbUPQhBCQkL0nZHlqllOWZ5Zf/N8BCYI/O7I+y5ROH6GotuZSErEku0vR/icbGL0tTkAACAASURBVOuLCII3ey1/Y73rSBBMNmKyc/bezLCGE3hfbNC4PUqUbXx8PH72s58hNTUVa9euxWuvvebB6iIjI59TsGb+jA3zO++8g0OHDuHQoUPYvn07tmzZgp///Of4+c9/jh07duDDDz/E9u3bsXHjRrz99tt455138P777+PNN9/Epk2b8LOf/UwrxZkscB6OCYlJEJhBSpQjJSUFGzduxLp167BixQo1EhJy5mlkLGByTZzzYrIgQiWKgZ8Pe8gSxRE2KQLO25kG2TS6/v7+HikGVrSm0uUUg1OXg6lEWabMqIVJEkxjYMqaExEwvQDzBXbaL8stP2M2cNHR0VizZg1Wr17tMaCFla7UvPCiMREREYiLi8O2bduQk5ODs2fP4s0338Rnn32Gzz77DLW1tTh16hROnTqFTZs2Ibw8HPHx8UhMTNT6AjHsYtxFThMTE1WZJyYmqqzFxMSojC5d+pcFdNavX49Nmzbh5z//udb2cFeCSRD4e47S8T3mdi9OM4jMiSI1n5M8O77/sl9OV/FvTcLAnpn8K3LjRBZZts19MUFgAuGUquD3x3wXnPbJytq8t95IDxsGjmgxcTC9WbmvPCVQvueQuMgq12wxWYiKitLoQGtrK3Jzc5Gbm4uioiK0traitbUVnZ2dWh+QlpaGiooKVFVV4dKlSxgZGYHL5UJ5eTkyMjKQlpaGo0ePYt++faqfS0pK1MhPT0/jl//HLzE7O4vKyko0NjaipaUF+fn5eh6HDh1ScnLjxg397cTEBCorK1FXV4eenh60tbWhr68PY2NjKC8vR3l5OfLz83XBKO44EoIgkWl22jhyaEblODrAaRlOp4u9MFNkpr4Re8CkQJ4hpyblXXNyHE0CzjqW67icCIKfn99fCAK/mBySdmLdLGwveqG9fXa6iKVL/zLCc8WKFVi7di2io6M9QpwiqAkJCR65eA75y00XQ//OO+9gx44deOutt/DWW28hJSUFr7/+OjZs2IA9e/Zg7969OHDgAI4ePYqsrCzk5OTg888/R2Zmpua5du3apd5bSEiIR22DU+hVvDGZpyDCFRkZqTdf2mQ4J7xy5UolC9y6KULBY0zZg2UFzveXw1PmfTeVFCs0+Z69D9Nws7I06wzMVkY/P7/n/mbCZLPs8YvSNlMky5YtczQqoiDN6xGlb8qwj4+PPj8+jhPkeEz8xGMODw/HG2+8oeva+/n5eXgJHJkSorhy5UocOXIEBQUF6OjowMDAALq6unDx4kVkZmYiLS0NaWlpKC0txZkzZ3DmzBns3r0by84u02iaRBnq6upUOX/00UfYunUrtm7dig8//BCbNm3Cpk2bsGLFCo+UXGxsrEbkROmEhIQgISEBa9euxdq1a5GcnOyYa/UWymbF6bQd95cLyTfvuZPH7I2scZ2DqWdMw8wGWJQm6yxvNQUsz94iCGY0jOWY5ZyjLfxeiPyxPDvloOXecgsd3w8hbEIEndIvYuDE8eLaL56DsGLFCg9vWPa7adMmDA4OYnBwEKWlpTh58iROnjyp0YK8vDyMjY2hsLAQhYWF+PTTT3H48GFkZmbi8uXLqKurw4ULF1BSUoKcnBykp6fjyJEj2LdvHz7++GN8/PHH2LdvH0ZGRjAyMoK+vj7s/cNeDA0NYW5uDhMTExgbG0N/f7/HvAM59szMDKanpzE9PY2vvvoKbrcbra2tOHfuHOrq6jA4OIibN2+ivb0d7e3tuHTpEtrb29HY2IhNmzZpuoGj0mLMJT0gzqqkYfj+S/TNXA2TyYJTPR4/Z7P40NSPpp2Wz04214z6s+5nR4ltPOtgjyJFb1EA00i8KFogAskvopM3y0o5IiJCUwAxMTF648XLEMVmDn7hokPxprZu3Yq9e/di7969OH36tH7eunUrDhw4gIMHDyInJwcnT55ETk4O8vPzceHCBVRVVaG6uhqnTp3C/v37sWfPHrz77rtYt24d1q1bp8NApD6CQ6lctMODQwTCKOXFld9ERkaq5yeRCPkcGxvrQTCcBMzM/3oTOFMBOz07MwfvLSTPBIEjCE4dDaaCNTsbuPiRBdjMmZlkhc+Pw2FmGoU9MCEVHH3gvK2ZuhEFa3qwZiQhKSkJK1as0HSCeGE8D0OwYcMGJaL5+fmoqKhAY2Mjuru74Xa70dTUpBXeJSUlKCkpQWNjIy5cuIALFy5gz5498C/0V0V94MABHDhwAC6XS5V2ZWWlRhzS0tKwbds2bNu2DZs3b8a2bduwZcsWrF+/3iN8GhMTo+8Uz9fnQWNm5TzfJyZoTnU6fO+kmI47ILwRBJZnJ5k1o0QvSjHI3035MmVN/s6fnVIM8htvaQonImyGe506cUQ+TQLD95MjBWakgeXZqbqenxE/KyEB8pukpCT1VAMCAtTwHTp0SOsDCgsLVdaysrIUjY2NqK6uRnV1tdYZSKdBaWkpysvLUVlZiaKiImRnZyMjIwNHjx7FsWPHkJGRgYyMDIyOjmJ0dBQdHR3Y/f1u9PT04M6dO5iZmcHExASuXbuGs2fP4uzZszh58qTWI/T19eHmzZuKrq4uNDc349SpU2hqasLAwACuXr2Knp4e9PT0YHx8HJcvX8bQ0BAOHz7sURAsKUMZCsUzeEQ383309/f3iC6aRYh8f53IsamLxP55i9SzrLNT5+fnnMoyiQO/D6bsq8ybOTKOGojAcSjYfCn5ZJ1edCYInJ4Q4yZFVqtWrdJKUWFgEurhhyaCKhEFIQeiCLdv345jx47h2LFjaGpqUoZ74MABzTuVl5fj7NmzKCkpQWVlJTo7O3Hx4kW43W7k5+fj0KFD2L9/PzZt2qReGkcvuPBMwm5SBMaLlzDj50E1JpsXtip5ZMklS/U7EyOuLPdW9MbPwmSjpsJ2ikDwM3MiEr6+vh4EgUOsTlEEp5CsSRBelJs1CYIT6zXPl1MJ8uLK9qxQ5cU0Q3SRkZEeBMHJWEVHR+P111/HunXrtFOF0wfSDivP/4MPPsDU1BSmpqYwMzOD3t5e9PX1YWBgAB0dHaisrERZWRmKi4s1IuB2u7WFa//+/Tooac+ePUoiBgYGdL/T09M6QCY/Px+7d+/WaFh2djY+++wzbNu2TWU0PDxcU3miyLj4UQhyVFSUo0zxoDCWQS7EM0ks527NfDgrOVaqTjLoRBjk+byIFDt5/qKfnMKyLPMsZyzj/L23KJkT6TajDEwQWJ6ZFHjzLk05dSp4ZjnnZ2XqCZMgiF7Lz89X4y1eu0BqAgoLC9HW1oa2tjYUFRUhMzMTJ06cQGlpKQoLC1FWVoaGhgZUVFQgLy8P2dnZyMrKQn5+PgoKCpCbm4uxsTGMjY2hsbERu/5pF9xuNx49eoS5uTlMTU3h8ePHKCoqQlFRETIyMnRqY2trK7744gt88cUXmJ6eRnd3NxobG3Hs2DG0tbXpuyIdF7Ozs1hYWMDVq1dx7tw5rd0Rh3T58uWakpP76efnp44cF/VK6pyjcgKTMDgRBDP1I7bPx+fHtTe8EQR+l+T/8uz4/TCJpZMz5UEQnA5mvoTyYssJOr1gptJ18mxNwxUXF4f4+HisXLnSQ4gldOjj4+PRzshthOKxSQRBBGR0dFTDU7du3dKJXLW1tejp6YHb7UZRURHq6+vR2tqKoaEhXL16VcNZra2tKC8vR2lpKfbu3atT6RISEjzyUVywKOfHTNGc0MVCwMRHBEv+JvtKTEzUSvjk5GQ9tmnsvXkJbFRNT8gbw+TvnIwuC7S3UctO0QJWfk6/MT1/lj2eocDfs3LlF8D02JzO3emlND1jUQRCXvgYEtHasGED4uLiEB0dDX9/fyV6LCPbt2/HkSNHcOTIEQwODmrx1czMDK5cuYJLly6ht7cXk5OT6O/vR3d3Nzo6OtTId3Z24vLly7h8+TJKS0uxvGo5Vq1ahbNnzyopcLlcGBoaUlkW5dfY2KgpsqamJjQ3N2uutqioCJ988glSU1M18iWzQUTJSVdQUlISNm/erPUM5tRSfqe5boZrD9hQM0k26z64cttJb/D3TPZM78r04s0og2mAWeblOKLfOIJg1s44RQtEzqUmwendYL3JRMQpdSMK34nYm6kz/q18ZjJl1iyIUWOiJzqKc+779+/H/v370dTUpOT1zJkz+Pzzz/H555+jpKREV2zcu3cvzp07h3PnzqGkpAQHDx7E/v37sXPnThw+fBj5+flob29XslBZWYm2tjaMjY1hYmICt27dUnkuLCzUOQgDAwMYHBzE0NAQJiYmtIPixIkTWgtRUlKi+t/lciEvL0+LKMfGxjAzM4OFhQWNINy4cQN1dXWor6/H2NgYDh48iK1btyI8PFxJUUxMDBISEpQ48H3iujF2DEziwHqFiw/lHYiIiPDooPP399e0Hxt2KdA302omKWZyzKTRJOTsiDnpUcc2R6dqRyfWzoU9nA8XZcE5P9mGDaDccC7kkEFG4olFRESooXzvvffw5ptv4s0338SqVatw8OBBHDx4EGVlZcomq6urceXKFVy5cgULCwu4du0arl27hsuXL2t/7MTEBDo6OtDa2qoFLN3d3ejq6sKlS5fQ2dmphTTCjj/77DOt2D1y5IhGFjjM5Ofn51GkKNEOs2ZBPDdRsOYsiICAAI/wtFzvqlWrPFopJfzEIShT6YrhMxWtGbJ6kVfOitBpDoKZXuDPsp0ZVvWWGjCF9a8NWTIVrzeDISOTpc9XyIEcj+sX5H6IZ8UveFJSEl5//XVtWWWPW8hsQkICqqqqUFVVpbLW0dGBmzdvYmRkBENDQ+js7ERHRwf6+vowMTGBoaEh9PT0oKurS1vC+vr6MDw8rDLscrmwzr0OH3zwAaqqqpQgPH36VEnEwMCA5lcl/9ra2gqXy4ULFy6gtLQU+fn5uuzu6dOncfDgQS3mlWpuMRpCTBMSEpRscFSEi7HCw8M9irH4Wcj7zAV2JnEzvSOniIBp7ATmLAPTQzd/J8rTyfNnWfXz+7FewBtB8EYSmBhLlM0kCGZES67VJECBgYEehZB8b1jps/HnOhj2XKWmRPbLWLFiBVJSUjwIwjvvvKMtjOXl5bpOQmVlpaK+vl5TYadOndLwf0lJiRYifvrpp0hLS0NRURE6Ojo05H/lyhUMDAxgYWEBN27cwNOnTzVF0NTUhGP/9zHcv39fDX1VVRXOnz+vuvnEiRPatlhZWanpjbNnzyoJ6erqwsOHD3Hv3j3cvn1bSXRvby+qq6tRW1uL4eFhVFdXIzMzE/Hx8R61N5I2NqO4fJ+Cg4O1JZkJG+t1M8ImzyYsLMxRZzs5cWyLeQ0Qp/Tciz4zaTdTXl4Jgihck1E45frYMJktF8KceHsOx69cuVKVhjAnqTeQEH54eDgiIyO1aGrHjh14++238fbbbyMlJUVbaRobG1UghSmOjY2pwN24cQMTExNavDI3N4fOzk60traiuroaXV1disuXL6Orqwtutxs1NTXKhGX98gsXLuDkyZN6TlxM6Of3Y3EaRwNWrFjhwQ6joqI8CIKwUPb8OXLy9ttvK0ni/YaEhHgQBJMdynfsJZueND8zNtJOOf6/hSBwukG8LpMgOHl1fGxWlk4RhxcRBL5uNghCpngbmT3BHhr/RjxiflmTk5PVUMrzk3sszywxMVEXj7l586Z6K3fv3sXIyAgGBwd1iEtfXx+mpqYwODioJLW1tVVrCi5fvoyFhQUsLCzA7Xbj9Z7XsXPnTtTU1ChB+PbbbzXsK1Gw1tZWdHd3K9Ho7OxERUUFSkpKkJubi+bmZlRUVKC4uFjfo/T0dB3ixC2QUVFRiI2NVXKenJzsOExMvCBzFr14SOIMOEWtXpTu8hbxYs+KCYJTSsGJILCnZBIEjm4xQXCKrJmk2lsKgbt42Ps3SS0TBDYsTBA4usIha04ZOEU2hTjwRED+zapVq7B27VqPgtP3339f5bmsrEyLA2VaosxAELKQl5en+vj8+fM4duwY0tPTcfjwYZ2d4HK50NbWhuHhYUxNTWFoaEg7EJ49e4a7d+/i7t27aGtrQ8b/k4EvvvgCp0+fxvnz51FRUYHCwkJHglBdXa1DlgoLC1FUVITy8nL09fXhyZMn+OKLL3Dnzh2NMnR1daG6uho1NTUYHh5GY2MjsrOzkZiYqAQ4ICDAI7ImdWTmJEXpxIuPj/cgCOYwJU7JMZljOeAixr+FIPC74Ov748yMv4Ug+Pv7eycIrFA51PW3GA8+oLdct5/fj5WdPNCIe0u5ZUO8Odl+48aN2pq4ZcsWVc4ffPCBCufo6Ci6u7vR3d2NiYkJXL16FVevXsXs7Czu3LmDO3fu4Nq1axgfH8fExARu376tSrOmpgbnz5/XdpihoSGPqVwSki0rK1NF39/frwp169at+iLKOGieUicDmNgwMxkQRStDmjidIiGq5ORkHecshkgMF6ca2HvinCNPAONnaUaFOHTljRByuJULrrxFE5wMuZOX5RRBMGVTtufr5heRz1uuQ15KpzwtF9iZhIq9hNDQULz33nt47733sHr1ao+aE27/qqioQF1dHTo7OzEwMICBgQFcu3ZNw6Wjo6Oora3VroO+vj50dXXB5XJhdnYWw8PDGBgYQGFhofZ1T01N4eHDh3j48CF6e3vx7vi7yMzMRG9vrxaLPXz4EN999x2+++47DAwM6PEGBwd1m4GBAW3tqqio0MVxqqur0d/fj+bmZjQ0NMDtdmu4lmVQCjKTkpKwZcsWj++dFJk8I04diEI1vV1vpICfmZPHbRprM/TqLYLAssbHc4oGeChLQ+ZZrk05l/PkY8t3nMIwo3gshybRd8pDm6lZ+Z4NDOsB05GTeRd+fn5alLd8+XL4+fmpLiopKdGoQXp6ukbH3G63Gtqamhq43W6NWnEbodQWCKkQotrZ2Yl79+7hN7/5DZ49e4ZHjx7h0aNHmJ+fx/fff4/vv/8eQ0NDOPp/HcWtW7fQ3NyM3NxcHD9+HLm5udoKnJGRoedUWlqq0Y7s7GzU1NSgo6MDd+7cwdzcHCYnJzE6Oqqp576+PtXxbW1tGB8fR2trKw4cOKDdY2L4IyMjNWrIkV65x1J4zjpfniG3oHOhPetlLmSXZyvPUZ4dpwxMHWmmLuS9kc/sHDlFj5mkqsw7hfjMjcTDkgIXPkHuyWTlwOkCYVWskIVQMLmQNihZMXHTpk04ePCgekfz8/Nq/CUKILO3ZRtRtrOzs7hx44ZGEy5duqTRhK+++gpjY2O4cuUKRkdH0d7ejo6ODrhcLly9elXZbXV1teaCa2trVek3Nzdrvu3gwYP45JNP8Mknn2iFrrwY8r0UGcr9EOMkk/O4wEUEITw8XMmUjNAVhSyEiyfomQLppDRMIiB/53SQE8y6AD+/5wclefOanBSnU7qBPTY+Ln/PkO9Zfvn82MiwR/bqq69qRIWZs8itqZgDAgKQmpqqaQVRCtL2KrMtXC4XZmZmVAGJrFy9elXlbnBwEBMTE7hy5Qr6+vq0+LClpQWzs7Mq1z09PSpfXV1dqoTb2trw9sjbOHLkCCYmJnT1vJGRESUIU1NTSpaHhoY0glBZWYmCggKUlZXh4sWL6Onp0fau7u5uJRYFBQX6zuTn52t0QEKuoaGhWLVqFTZv3ozNmzd7hE1NXSIkMTQ0VJ8NE2S+3+ygiHLkCITIFYfKTdk0Q/Um6eD9MJkwiSWTVJbtv2VQEhMSkyCwvLFuZSJlvod8Tqzond5vfhacPmADw/eWCcuyZcuwfPlyLajz8/PTYV9Ss1JUVIS0tDRtuy0rK9P0mYwwrq6uRn19PXJycpCTk4PCwkK0trZqtKyjowN1dXXqlH3xxRf44x//iEePHuGrr77C06dP0dvbqxGE+/fv491n76K0tBTz8/Pq2F2+fFlrEI4fP656uqGhQc+joqICmZmZKCgowMjICGZmZnD16lXMz8/j/v37uH//Prq7u7XYt7S0FBUVFcjNzcXOnTs10iu6VTrSpEVYImYcRTdnpMhzYILG9TsSjZDnEhQUhPDwcA/C4ESeBU4zEbwRbVOemCB4I9GWIFiCYAmCJQiWIFiCYAmCJQjPEwQO48lG/NKaIS0WSK5a5lBwQECAFjjFx8d7tHrIjZVFkbivNCEhAatWrcLGjRtx4MABpKeno66uDtevX8f169fR19enaYXS0lINK42MjGhaoKmpScOqExMT+r0UKU5OTuL+/fvaXjY6Oore3l4Nx7rdbpSUlOh65RI2a25u1uEfWVlZmvPat2+fdlBUVFRo7o1fmLy8PKxfv15rCHhK2dKlS3X6nayxLvlcnqooL3tcXJwSBBkRnZSU5NHOxCEtM4TrTcHyZ1Pps4F3KthyWovBW1qBj+Utb8uKkH/DxJQ/my+A/N18WfiFczJCct1yv6XVdOXKlfobzkXK1LfS0lJ0dHTgypUrGB8fx/T0tBYKMmGdn5/HjRs3MDc3h76+Prjdbly8eFHXrb927Rrm5+fR29urdQR9fX1KfouLi7F5ZDMOHz6M2dlZLUy8e/cufv/73+P3v/89fvjhBy3wGhoa0rqZ06dPo7CwEJWVlRgcHERjYyM6OjrQ09MDl8uF69ev4/79+3C73airq0NdXR1cLpe2D3OtgbRAxsXF4fXXX/eQQdYHpjNgOhemDLBx9PX1Vb3Bxt9MRznJjYAVHxtkfh+4aNAbKea6G2+dO6Z8y/fmvkwiYZ4Tk1oOJzMpNokQb+Ot9571t3mP5LkkJCSos+Dv74833ngDb7zxBhobG5UgSKqhrKwMhYWFaqRzcnJ0JoIMPzpy5IimyhobG7Wuq66uDo2NjSgtLdXOm5s3b2J+fh7z8/OoqanRVsX79+9j9cJq7N69Gzdv3kRfXx9cLheePHmiHUF5eXladNje3q5F6hUVFSgqKsKZM2dw8uRJVFVVoa+vz6M2rbu7W2snmpubUVdXh9raWtTW1mL//v1Yt24dIiMjtTA3JCQEcXFxHmlK0+CbXSF8v4WEmaOZzaFVXBPF7w2nEpj4sS5jEsEpWNbH7ES9SE6XsGCKsLKhkZfSKR9onrhcNM8s4HkAUqAnzIxHT8qyyRs2bMCOHTuQnp6OrKwsVFVVaRX3+Pi4emZtbW1ajFJdXa0PuaqqSgnCzMyMFh9KznZkZAQ3btzQlplLly7B5XKhubkZ9fX1yjzLy8tRU1OjxTmiZEXRyucdO3bocI/GxkYt4Kmrq1NmmpWVhffeew9btmzR6YmJiYk645yjAlz8wrkqeel5PYqEhARV1LwKn9lrywqFn5dJEFgB8TasFL0RhJ9Sd+AUYfCWY3byEE1SwJ9NQ8RyzNfEJMEkVtJpIkOQYmJi9Bjh4eHYsmULtmzZgqysLJSXl+PChQtad3D58mXMzs6qF9/c3KyG/NatW7h79y5u3rypZNTlcqGlpQUTExOYmZnRWgSuI+jv70d/fz/Ky8uxZXQL0tLSMDQ0pO/CwsICnj17hmfPnuGPf/wjHjx4gAcPHqCvr0+NfVFRESoqKtDQ0IDBwUHU19ejvb1d2yqFIHR0dGgPe1tbm3qCa9as8aiVEXlNTk7WWQmxsbEe9THeesBFJuXZmcbRfJZmdEC+Z/lwMrJOJIJlno2uuQ8nGfZGELzJuQnz3EyInPI18j1zkl/e1lwgi4kC1yLJ9hJpkLHCrFvi4+O1CFDIamtrKzo6OpQsnDp1SjvJpAjx8OHDyMrKUoLQ2NiImpoaVFVVoaSkROsQOjo6UF1drUWPTU1NKC4uRlFREQ4dOoTf/va3+O1vf4vBwUG88/U7KCkpwb/9279prcKf/vQnrVkYHh7WyHJnZ6c6dS6XC01NTaiqqtK1G4qLi9HY2Khk5OnTp5icnMTExIQWCosz6Ha7sXfvXrz22ms6UCwuLg5RUVGOheks87wOCjsr5mcuEuUokEQVJHLk5ORxPY8ZWWBZ4WiCkww5ybu8D8+txWAqUg5vmUaFhV7SA1KsJ6ETsw1M2kDEywgODsbKlSuxfv16vPXWW9i6dSsyMzNx+vRp5Ofno6ysTB/+nTt3NDQ0MTGhTPbw4cNqpM+dO6cKeWFhQdMQra2t6OnpQW9vL6anp1UJDwwMoKGhwSMyUFNTg4aGBrS2tqonWFBQoJGC2tpafXneeecdLVjs6enxaP2RYq+jR4/iyJEj2mO7bds2pKamanpB5imwYWNmyQqCyZb04Au4xYxZppORNIWKlSULFRMAFiRvytJsSXyRQmViwtW0TqFi01N0Uqr+/j/OoBfFyC8ys2uRX5FR88WVyEFycrJHdCY4OFgV5PDwsHpEUmw4ODiI+fl5Jam1tbVKUr/44gt8+eWXePDgAaamptDV1YW2tjbU1dVheHhY+8BnZmbUw5Fpch0dHWhoaMDWia06EEb2K1Gx+/fv4w9/+IOShe7ubpXfyspKtLS0wOVy4dKlS6itrUVbW5sShBs3buDBgwdoaWnRtERzc7OSkD179jiukhoVFaWjzdetW+cht+IoyHvO4VB2KuQZsbfDjgjLLcs/y4WZPnAiHhxVcPLcGU5yawmCJQj/7QiCGYpl9i5KlIWTWzzMi5WlY2U2gBgrHjnMw4144qCEK99//30cPXoU+fn56oGLspXebrfbjcnJSVWiz549w+PHj/H48WNcvnxZc7Zzc3Maerpy5Yp6ZD09PRgYGMDIyAhmZ2cxOjqK+vp6nD17VucjyBQ7CZGlp6drXrihoUEjBbt27dLPLpdLt8/Pz9eXpLCwEKWlpTh//jxKSkpw9uxZnRi2c+dOJCQkaLsnG3ypL2Dlyn3nMnlSlDFHE7gCnwma/E0ERpQHhyFZ6XBInvOgS5Ys8fjem4JkY+yUTnAKbbHnKPtlw8DbcArEx8fHo75AthOlaKYTnF4oWelzzZo1auBEtmNiYlBRUaHtsjzlUNIJly5dwu3bt/Hll1/iyy+/9PDib9++jWfPnuHJkyeYn5/H4OAgLl68iMbGRpWb2C63bQAAIABJREFUhoYGtLe349e//jV+/etf4969e9rO2Nraig19G7B79260trZqZKGzs1O3uXXrllaA379/X79vbm7G8PCwtkHW1NSgqakJHR0d6O/vx/z8vEY4hGBLdENqJHbt2oVdu3Z5TJVbunSp1mekpKR4KEU2bCZB4JomVpxOYVl55qayFPnlLhUmAk6RMHnW0mXBhICVsJNsm9NDWcZNeTcjc2bruFNdjxybt2fda4ainSJl8q6b6RZvw63CwsKQmJiIdevWqe4ICQnBu+++q+lckV9ZR0FSp+np6Xj//ffx/vvvY+fOneqkpaen6wAlGc7V0NCAyspKjczKkLr6+nqUlZXh008/xdtvv43Nmzdj//79+OGHH/DDDz9gaGgImf9vJh49eoTvv/8ez549w1dffYXvv//eI5UsaWjuYhgZGcHp06eRm5uLwsJCndiYlZWl19Pe3o7e3l50dXUhNzdXW+b37NmjcxHy8/O15Xf58uWIjo7Wey6kWewYpw94Xo3IkLSdCplggstzF0wyyc9VnqNJHJwi+ywDTBY4isd62d/f32PRsSWmgHFeShQ2Cxwrag4byljZpKQkj1w6h76joqLU+Jljk2XlRRni0tbWho6ODtTX12sdQUNDgxbISBi/rq4OAwMDuoLX/Py8KkUZTDMyMoKpqSlVfJL3krneIyMjaG5uRnl5OaqqquByuXDx4kUMDg6qgqyvr9dCmPb2do0O7N27VyMGbrfbY4qdMPBTp06hoKAAZ86cQXZ2Nj7//HOcOXMGRUVF2LlzJ9544w0dZyvCxuOmGbziGOe5JC0hBWDsVZgRBPZgnDwrbx4Og+sNvM1BEPnhYUec12VS4KQwzcJEFnSnFAPnYJk9i+cpL4MYK75+8bTi4+Px2muvITIy0sOY8Yx4kSkpHOzo6MClS5fgdrsxODiI6elpfPPNN/jmm28wMzOj8jE9Pa1yKq227e3t6l3l5ubi1KlTaGlp0Rzs48ePNWVw8eJFvDf1HrKzs9Hf369EZXR0VFMCAwMDeuxf//rX6mVNTk56zPtobm6Gy+XS/1+7dg23bt3C48ePde5Cc3OzeosjIyN6HR988IHKXUhICFauXImVK1fquHQeTSv3WRwFiSiwzmEPSsA6x4wOsFJknSX79PX19SCKppw7EQmzzsFbisGJFJjbMwEwyQCfv1PtBL97rJs5emLWYfD2vB8xVBJZ41omeU9WrFih676IgQoKCsKuXbs0vSrr1uTk5OD48eNai5WTk6MRhIyMDNWJ/H1DQ4NOps3Ly9PixKamJvT29modTlZWFrZs2YK3334b+/btw+3bt3H79m3cunULuf9fLv7pn/4JFy9eRGtrK1paWlBbW6vRsa+//hpzc3OYm5tTJ0wmKvL00OrqahQWFuLEiRMeI6JlHH9BQQFqa2uVpAtxcLvdHsugy6yTxMREREdHe9g6b4SOybE8d24/l+crust0wJ3eBSYI/D2/O/yeOJFaISdMEJ6LIDDbN09EvDIOeTFJEISHh2PVqlVITk7WKYkC+S0vTCTFepKW+Pjjj5GTk6MGX8Ch1Lq6Og3nnzhxQntsGxoaVKlJv+vc3Bzu3LmjBV6zs7PauSBjmOfn5zE+Po6RkRG0tLToLPzOzk50d3djZGREhbC3txcXL15UyAtz4MABZdrd3d0e3iXXIOTl5eHzzz9HRkaG/r+kpAS7du3CO++8g82bN3ssI83Cxuw/KirKQyD5hefPouyEIJgFXmaokwkCC55psH8KQWDviQmCeGysXL15U5zaMgmDWaRlhlX5xQoODtZjSX2HGSkJCgpCQkIC1qxZ46FEQ0JC1Gu6efOmDjGSKYmdnZ2YmJjQboCxsTHtKrhx44bWyoyNjWFubg7z8/O4d++eFiPKUJfMzEwcPXoULS0tWsX99OlT/OpXv8KvfvUrdHd346P5j1BUVITLly+r1zQzM6Pn53K5dPvf/va3ShZu3bqlxFeIidvtViV97do13L59G0+fPsW9e/dw7949NDY2auHZwMCAzgE5evSox3svkS5ZVlrqa3hyosirrIzHkGgCG03TS/ZmEFkW2IBKpJMjohw5MwmGN0VqphgsQbAE4b8VQZCT4joDpxAfe6kcvpObEx0djTVr1miYkRdbEiIgA4QklCUtjRkZGZp/nZ6e1rxsTU0NamtrNa3Q39+vYdjh4WHNI3Ehl6QNZmdn8fDhQ/X0pGJ2eHgY33zzDe7du4eFhQWPyXYNDQ0aUquvr0d5ebkKobSFtbe3e7Tx7NixA59++ik+/fRTZGdna+tZZ2enfm5vb1dic/z4cXz44YfYuXMn9u7di3379uGDDz7A1q1bsW/fPsdpdRxB4KWfzSgOPxcRHCka5dYbU+ma+X5WvAEBnuuGM0FwWpyJvS5zZUeziptDsE6hMjNqYUYSTIiRMMmuhOXMiAO3g0VFRWmniSxzLPf1xIkTms4qLi7WSJQsttTb26ujk3t6ejA2Nqae+5MnT7RtcGhoSBVcQ0MDTp48iczMTBw7dgynT59GZmYm0tPTUVZWpmkumRE/NjaG+vp6HLh/AHV1dZidndVolUS/ysvL0djYqFXc//zP/4yZmRnMzMzg0aNHePz4MW7duoWRkREMDAxoe7CEakdGRrS17P79+2hubtaQ7PHjx5Us9PX16ZLS/DwiIiK08l3CsKKkTOeDIwhCEFjuOKLAssmKzow68DZigEW2zPoTJ6PulAbj7820Gn/m/TkNShKCbk6+M2XflH+TXIhC53dV5PTVV199roOBjQ//X4ivFDoLSRCdk5mZqXrXrDWQAu2ioiI1rtnZ2Wpwd+/erWShvb1dC8BPnTqFI0eOIDMzE7m5uRqt7evrw9DQkK4K+fnnn+v79vjxYxz610OYnJzExx9/jA8//FDXNxGifuvWLY0yy9oLBQUFuH//Pvr7+9HR0aER28LCQhQUFCj5uXjxoqZA8vLykJubi4qKCly+fBnz8/O4ffs27t+/j82bNyMxMdFjQb24uDgkJiaqU8cjyM00F6fkeAQ2vyPybET+ndIEPF6fZYbln9tgzemyvL3IJv//ubobVrpyckwWRJBYiJkwSEicR7RK3zPfDB7v6e/vj6ioKOzduxcZGRno7OxES0sLLly4oLOzT58+jezsbFy4cEG9drfbrWHOwsJCLabiXCuPqe3q6lLlOjk5qd0QogSvX7+uU7WkLqGrqwsXLlzQFcckkjE1NaXHKy0tVaUqL9CpU6ewbds27Nu3D/v27UNhYaGmQyorK3Hs2DGkpaXh0KFDOH/+PIqLi1FQUIDPPvsMO3bswLZt27B161YdJb1r1y4lC1L7IeszcH0BF4XJNux9cHsaF5eZrJKFx5y4xaFbeX7sTTF5MNdjYGHjSIMoQFaiTqTgr8EMVzt5h2b0y/wuNPQvK4OmpqZqAa0ozdjYWMzNzanRlHXpZV6BzBq4cOGCjo2VdkG3262FiV9++SWuXLmCmpoa7ZQpLCzEuXPnUFFRgYyMDOTn5+Ps2bOYnZ316ESQKFhZWRk+ufmJzjKQYywsLChZGBsb81h/5Ntvv9VRzByZk17ya9euYXBwUN+Rb7/9VpVtZ2envm9StNva2orh4WH9ft26daogo6OjddLp6tWrtZ1XSJvkZUWvsEfs6+vrQcqYLJituk4yy4acCaNZB8MFfGYqjeWUSYSTzJvgdJqpcPm8TaIikTYxIkxmmEg5RTxM4sWeqvlecLRGrj84OBgxMTGa2oyKitJ7tmXLFq25am5uVoeooKBAW7klVSUEQIq4d+3ahePHj+P48eNasyVrNWzbtg179+7F8ePHkZ+fj6qqKjQ1NeHq1asafR0aGsLvfvc7/O53v8OdO3ew/4f9uHz5MvLy8rB9+3Zs3rxZ13C4cuUKbt68qangzMxMjSyLXRgaGkJpaSnKyspQW1ur9WVut9uDXMiCaFVVVbrC7/j4OBYWFnDq1CmtrQsNDdXR96tXr/aoGZPnwrViwcE/rvLLnXxO0QYuWuToF+srecYmQWAd6hRh5VodjhKYBb+WIFiCYAmCJQiWIFiCYAmCJQgvJgjy8pohBz6YmduSC4iOjtbCRCEAUnEsHQsJCQkew5FE6b7//vtobW3VVeWysrLUgEoYqKCgAKWlpZpfra2t1c/Hjh3TsFd1dbWGpObn51WhyoqOCwsLePr0Kb755hs8e/YMd+7cwa1bt3Dt2jWMjo7i0aNHWFhYwPT0NJqbmzE6OqqT6kTwpAJcVtiTEJUI4NDQEGpqanSwzIoVKzRXV1tbiyNHjuCXv/wl9u7di5ycHF3QpKSkBCdOnEB6ejoOHTqk6YodO3boGhTJycka0oqIiFBSJmuF+/j4aCeCKFchBH5+fh5rO0jXArfImPl7syiVQ5sCTjGYk+FYyERIpTCRyYC5jQi8mQJgpSl/Z8XpRC7MkDYTA05DLF26FFFRUdi0aZNOpJTrP3nyJAoLC3XC4dzcHG7evKkrgt66dQvj4+Paijg5OYm7d+/i+++/122EuE5NTemzzsnJQXl5uabSysrKkJGRgfb2dly6dAn19fVagDs3N6ckd2JiAu9NvoesrCyPGfKVlZW6zbVr1zQV9uTJE1Wi09PTqKysREVFhQ4AGx0dxbVr1/RcJycn8eDBA93XxYsXPQiFKFXpKGpvb8fHH3/sUY8gU1PXrFnjkWp0miTn1ALmVJQqoVWzTY+Vn6RJmTiYxYgiR2YqwvzerBNwqkHgtJpTUaOZgmDdasoty6ipd51SDPIOC6FgueZ1Qvg+8bvDxFjqxTj3HRwcjL1796pjlpeXp4RQ0rHt7e2YnZ1V3TcwMIBf/vKX+OUvf4nPPvtMdXNVVRXa29u1c2bXrl1IT0/H+fPn0d7ejsHBQR0wJk7X6OioFul2d3fjwJ8OYGxsDNPT06iqqkJRUZES9J6eHkxOTmrqedeuXTh27BiOHTuGx48fo7OzE21tbaipqUFbWxt6enowMjKiMj49Pa21Djdu3EBDQwM6OzsxOzsLt9uN6elp3LlzB0VFRZoiF7smdTcy8ZbXLgkICNBnYbYycrqH5Y5HA4j+k7QEP2PZnp8xd/owQeAaF5Yh+ZtTTQzraW1z5B0Lo+GLECEOCAhQJcBRA95OBiFJPz6PBpYixeLiYjQ0NKC2thYVFRWora3F+fPncebMGRQWFqK6uhoNDQ0aTTh9+rTHgkkul0uZbGtrqyrhGzdu4MmTJ3jy5Am+/PJLD+Igk7kmJiZ0CVwZh3vv3j1d7WthYUG3l3qGqakp/XzlyhVlnaOjoypsTU1NyM7ORnZ2tk4Xy8nJQXFxMbKyspQI8HSx6elpdHV1ob29HZ9//rkWtFVUVGD37t3YvXs3Nm7cqKSAZ0mEh4d7CB4PVmJjLu2m0h0hz9ZbQRQrVyePPSAgwKMn3CliYI5SNpWtuV8n4RaFyXlckU+nz6aiF0UsbZLyvXi28jk2NhapqalKVoQkiZdz//59JaZTU1NKQKVgcWhoCOPj42o8ZRCSzDaQoUmnTp3S5WiFUMjSzzU1NTrMa25uTvu6v/32W5Xt+fl5nPwfJzE8PIz09HStL/j222+VCH/33Xdad9Pd3a2Rj6+//hq///3v8eDBA/WghoeHdSbIw4cP8atf/Qr/8A//oBGPmZkZ7bpYWFjQ656amlIZ/eijjzxkU7BixQotWJZnyZ02QsJ4fXsp3OJ8rRhOp5GynFs3ya5JBGRbjo5ydMCsBXCSTTNqxqSA9SjLqzcSwtEOObacI18DE2Fuj2OPku8H31/TO5X3nuvDli9fjpiYGMTHxyMwMBBr1qxBamoqampqVNfKCOKKigodWDc+Po7Z2VmVterqao82xz179mDPnj2orKzUwr+hoSF89tlnKCoqgtvtVl0qLek8Ll+IaV5eHrb9j22orq7Wup/u7m6Mjo4qOZmentbtP/30Uxw9ehRHjx7Fb37zG9y4cQOTk5NKuKuqqlBRUaETRouKijA/P4+FhQV8/fXXcLlcuv+rV6/i2rVrWFhYwP79+5GcnIz4+HgsXbpUx1AnJyerfYuJidFnIdFeiRSYE4flWZsyKoZbnqVZ1MsyYepBNvhOUWL+zDrTjISx7FuCYAmCJQiWIFiCYAmCJQiWIDxPEFhxs9CZuSvpRli1apWmFcLDwz0OKKE+CXGJYIvQhoSEaF49IyMDp06dQm5uLs6dO+dRYZqZmYkLFy6gsbERXV1dmttKT09XwywGuampCX19fWqkZZ2Fvr4+NDQ0qGC0trZqGPXZs2eYnp5WxTs7O6v5LxGW69ev6xCmZ8+e4enTp9oTfubMGTXeBQUFHstDp6WlIS0tDdnZ2dqe2dnZiZKSEpw7dw7FxcU63KahoQE5OTlan5Cbm6v5M6lpkNqE/fv3Y//+/di0aZP2nQtJW7FihUf7o4S1ZLASKwgGh+65wto04KxEvSlLri8wUwpOAmhOaOROCTP/y4ItypgVLStIk9zI7zmMKucgylHunby0wcHBSElJwcWLFzE6Oorr169rXUt7e7sqSBnXPTQ0hJmZGQwPD6Onp0dlUtoJpdJbOhWysrJQWlqKa9eu4eHDh/jHf/xHbZMdGhrClStXNKQ7PDysaa7r169j/939Oqv+T3/6E/70pz/hwYMHqiwnJiaUULvdbnz99df4+uuvcefOHTx48EBTJEePHkVhYaF2RMg6EHfv3tWhY7dv31biMTc3p0bi6tWr2pVTUFCgS5zHxMRovVFycjI2bNiAn/3sZzqqOjAwUDtq2HAKAeA0WVhYmP6da2dYniWfbuoqeY5sPFmGWaacCALLGht1s4uBIcfgWgRz+ijLP5+vmQ4x5ZlTBSZRN9OBToOS/P1/XFZe7reMyRanISwsDElJSdi7dy+OHj3qMSq+sbFR9Wh9fb2mmk6fPq1yIB0I4ggJ8vLydKphdXU1Pv30U+Tm5qKpqQmXL1/G+Pg4pqamcPfuXTx8+BCPHj1S0jAyMvKXYXT/tAtut1tbbbu7u3Hjxg1NjfX39ytBkDb1zs5OfPXVV7hz5w5mZmbQ0NCAEydOaG2EEP6PPvoIIyMjGB0dxddff4179+7h1q1buHr1KhYWFnDv3j08evQIvb29+Pzzz3Hy5EkEBARoTcGaNWs03fDGG29ousEclS9pdplfIwOTOO0mvzOJIjtw/IxNYsyy6USUeRtOc3HdzHOdO8wieGecqwoLC9Oxs7zYBOcGk5KSkJycjBUrViA6Olo91WXLlikpOH78uHrPUmjV1dWlQ2ba2trQ2NiI4eFhDA4OYmBgAE1NTR7DikRQOzo6NMfvcrk01yq5I86xXrt2TYXU5XLB7Xbrql53797Fb37zG9y9exdXr17F1NQURkZGMDw8jNnZWfXAxItaWFjAF198oaQgJydHF41qbW3VgsXi4mL1HGXKnhxbxtiWlJRg586dOgdh9+7dqty3bdumDDUtLU3v2/79+7UeYevWrUpU4uPj9Xsx/qxcJZLAAsUMlhmo1DQI42WDyxEEU0makQNTOTL5YIXpVD8gHh7LovzdnPrI37Ni52Ow58ikV7xcKSCSY6enp+t68dKe2NraquRUZmrIiqCSp29qatKaAoG0fJWVlaG6uhp1dXXo6enB9evX8e233+Lf//3fMTs7i5aWFlRVVXms4FhTU6M53+HhYRx6cAgNDQ34wx/+oAryzp07KvN1dXW6iujAwIAH8Z2fn8fk5KSOk83Pz0daWhpOnTqlY5fHxsZ0tPPVq1f1Gp8+farvEk+HrKiowM6dO7Fz504sW7ZMFWdSUhJSUlK0foYVG+dqudDWrIHhz2Y008mAipzycDCRG65FYILASlWOZ34vMsoEgQkuy7xJpKVGwcz5mnUFsj++Nv4Nj1Hmd4GvPygoyOPYXOfBtR0pKSlYtWoVVq1apat0yvtQWVmJvr4+zM3N6TTEwsJCdVwyMjKwY8cO7NixA0eOHNHpmmlpaUogc3NzdYrsqVOn0NraiubmZlRVVSErKwuZmZlIS0tDbW0tOjs70dvbi8nJSXXMampq1OBXVlbiw99+qIO9SktLUVRUhLGxMZ0VMjU1hcnJSUxOTsLtdut8kKtXr+L27dsYGRnB0aNHkZ6ergRdyM+JEyc0QnL//n08fPgQN2/exOjoqE48HR8f11Ufi4qKEBkZqZHwlStXKil48803VQeLDIrelWcRHh7+XLRLIgzyPEXO5f3guj+TMMrvubCco61mxIHrXpggmM6gkmJLECxBsATBEgRLECxBsATBEoTnCIKpoCUHKycly1smJCQgMTHxuQuXmyOhltjYWM2fREZGIj4+Htu3b8f27dvR1NSkikwqqiUfJJMGZdnQI0eO4NChQzpdUSYsSmVtW1ubLsspbZItLS2YnJxU4RodHVXFODAwAJfLhY6ODtTW1qqxHhwcxO3btzExMYFLly4pSZB6BpmJ/9133+HPf/4z/vznP+Prr7/WeoSqqip9eVpaWrS1saGhQc91ZmZGFwSR5aXPnTuH3bt3IycnB2fPnkVZWRn27t2rYbp33nkHqampSE1NRXFxsaYrqqurNaS1YcMG7XSQOhAx+vKMzAFKMi0tMDDQYxIjC5QZonQKc75o4RomCpzCMkkBExJRtmz8uUXMJBGcX5PvfH19Na3CBFdyr5Imk9+sWbMGGzZswGuvvaYtTLGxsUhOTtZhRg0NDZidndVpmaOjo9rRcP36dUxPT+vSssXFxcjLy8OJEye0oltSUmfOnNFJizKkSFqonjx5oi1d8/PzOHjwoJLfzMxMJQhTU1M4+8NZJbNyTn19fXqMwsJCfa96eno8SMSdO3ewsLCAsbExDSHn5eXh4MGDyM7OxunTp3Hu/2fvPYOjvq/18SQOxTJVgEBIgACJDgKjAJJAhSpQRQikVV2kVVn1viqrtqu2q94QQr0LFQSI7uASV+w4dpw7tu/Nnbm5uTeTzJ1JZpK8ujPJPP8XnnN89psV8f29/fvFjtditUV7vufznOc85zmpqfx6TU1NDIol7dvc3MzXcXp6Ovd8169fzwly48aNvKNh//79FrsYCCSsW7fOwopd9tbJkpkSJtG1EiwoD0qpR1BS9ZT0lDoYazEsD3BpCa50D5XxK9+HfB2l7kC2GOS/yeexBmDk55OtEamZkW0ZSV9LannJkiXYsmUL78JxdHRkanvNmjWIjo5GZmYmRkZGeKcBuQqaTCao1WqeEsjIyGAdWF1dHcdKQUEBzpw5gzNnziA0NBTV1dWoqqpCdnY2wsPDERISgosXL0KlUiElJQXZ2dno6enBxMQEJicnERISwrnTZDLB520fVFVVQaVSYe/evdi8eTPS0tL49aqrq7mQ6+jo4D0OU1NTGB4eRkNDAy5dusQTclVVVRZtEgIIw8PDePfdd/HGG29genoat27dQmlpKbRaLXQ6HdRqNWJiYiymRVatWsWaPGmgRLb4sq1DuVmpCaG2plJDQK03+fsEHJR6BmXMy1iWNwkAJAhVxiK9jx9IVC23Acp+rLQAllXa+vXrsXPnTuzcuZOX2xBz8Nprr2HdunXYtm0bo0nq9XR0dKC+vh4VFRUoLi7mL6C4uJitMbOzs5GRkcELQnJycqDT6dgxjmxiTSYTDAaDhXCGqnWdTsf9qO7ubphMJu4Rl5eXc495dnYWo6OjGBgY4Ll2s9nMe8ppV7kUi1HCffjwIYvFioqKWBfR2NjICbyyspKDeXR01IJBqKmpQXt7O7q7u1FaWoojR46waxeNChUWFnIPPD8/H+7u7nB3d7fYxaC0UZVBJMf6yJlRBpgcj1QKomQSloe0TJZSv7CYB4ISOFj7NwpoCUaUlRUFv0zOMqCVe9bpM8hxMrp4XV1d4eLiAgcHB0bxdnZ2cHR0RElJCTsNdnV1MUtkNBo51oaGhlBTU4Pa2lp0dnbi2rVrXKFQEj116hQDXBIOms1mdHd3Y2xsDF1dXTAYDBgfH8eLFy/w5ZdforGxkdmHy5cvMwA1m83I+TwHDx8+hF6vZ+AdHx9vASCJ7TCbzcwAkD5ncHAQJpMJpaWlyMrKQlJSEtzd3XHhwgX4+/vzxruUlBReh97S0oKBgQGO86GhIWYT6uvrOc5lnrCxscHRo0dx5MgR7Nmzh5e4rV+/njVKyopIglyZRJXMF8WgfJwSIFDClIlQHuDykFbelDFJP5ejvUp2TBnDlIwlKFAeAFKzIIGJTOQS5CzWh6aYJ3EbXdNSjEg3W1tbODs7Y9u2bdiwYQMcHBy44KBr4vjx40hNTbUozEjjUllZyVt0y8rKmE2rra3lx/T39zMTGhAQwPFRWlqKyMhIRERE4Nq1awgJCWGGgg7ilJQUbNu2jQuloKAgHHt0DBkZGTh58iS/z7Nnz7J7rtlsZjHtgwcP8OWXX+LLL79kH4T6+npcvXoVoaGhKCwsRG9vL1uht7W18fXS0NCAjo4OtLe3M4tdWFgIrVaL+vp6FBUVobCwEJs3b7YYVZQrBUgTtmnTJgt2gO4vNuJLoFiOOsrvXrL21go2a+yAMt6VzJXyeaSehvO8vEgo4CixEsVhb2/PiEkChLVr17JZxM6dO1nsQlWCra0ttm3bhsuXL+Py5css6KIKhNoGWq0W+fn5bK1cWFiInJwcZGdno6CgwAIgUHVE6JLEgVTd9Pb2MkAoKSlhurS1tRV1dXW8Yreqqgq1tbVob29ncHDr1i20tLSw7Wx/fz9TV1QpUhuDAnJ+fp7ZBFr5SxaeVImZzWYMDg5iYGAA3d3d7CWelZXFOx86OztRVlbGFrY7d+5kYJWbm8uftaCggCndTZs2ceBIH3WZNAj4UVKRS3QkQFBSstaoWyVAkIf9/xUgKFkFmSQlypWV2GIJXF4AcpsaxaHyMxEIPnDgAHbs2MEXPBmaODg4oKioCE1NTRwLlCwbGhr4oBwZGeEV4rQ5LibSFJoNAAAgAElEQVQmBiqVCuHh4QgPD4ePjw+Di9bWVphMJjQ1NaGvrw+jo6M8/dDR0YEHDx7grbfeQm9vLzMIKpUKqampSE1NRVtbGzI/zcTdu3dRUlLCSnFqEVRUVCA/P5/vm81mvi5u3ryJ+/fv85IoaoUkJibi5MmTOH/+PPz8/BAcHMxtMrpOqqqq0NbWxhbTNPlAAko6AGgJG+UAsl2WAMHaJI1MnpR0ld+hPPRlvqJDUFbSysQnqyNly8xaq+q7AAQZvxLwygSsbFHImzKWJYhYDCDQffn3kMY58vHy59KqfcOGDdixYwe2bNmC9evXW1S+tra2OHjwII4ePQqNRsNCPppmoOkxEtCWlpYyWG5paeEDu7+/nxktf39/zuuVlZXQaDS8lCwiIoJtmuW02o4dO1jkeOHCBRy6cwgxMTHw9PRka+PTp09zbDY2NjKD8PjxY3z66af49NNPMTc3h97eXjQ0NPCSvIqKCgwMDLAR040bN1BSUsLsNrUOqW1YXFyMjIwMnjSrqKjAvn37LOKUAMLy5ctZQO7o6GiRbyTwpe9CGasEEJQCW2kqJr9jZVzL+zLOFmttyZyqzLXMmilRNCGeFStWsDsaUVKUSCXjQApmJycnC+e0JUuWsFKWqimDwcDJi0xi8vPzkZaWhoyMDKSkpLCbXEFBAYqLi5GTk8MBSY/Pz8+H0WhkurakpIQpo97eXr5fU1PDFX15eTmzCY2NjTCbzbzymfrMZKAxOjqKiYkJDAwM8MFgNpv5Odva2rh1MTQ0xD2vhYUF7vlmZWUxa3D79m0e6aFxIELNBJho3I2Mkjw9PbkHqNVqLfZAkCre1dXVwsVOiU6VUyTSLEl5UyYjSlzK4LSWLBerpJRtBZl8ZSUog1WJeOmikr+rTOKScibwI9/3YrTzrl27uC1GVS0lzYKCAtTU1KC+vt4insbGxjA3N4e5uTlMTU2xXsVkMqGiogJZWVm4du2axTIvqsgJbNy4cQOzs7PMSrW2trKWpbS0FB9//DED0/z8fG6fTUxMIOn9JIyOjkKn07H3fWhoKLve6XQ6fq8U52azGWNjY/j5z3+Op0+f8sGemZmJhIQEnD9/nkGnu7s708MEcsLDw5GWlsYtl/r6emY1oqOj+RqRsbV27Vps3rwZjo6O2L9/P+zs7HiPiJxaIMp05cqVFmO7ytiUAIEOvuXLl3PhImNTWWXJ+KND1cbGxuJgVzJl1iqtl+lu5PMoWQEJNOR9a20HCViUrIiyvUZxLNkW+rnyPt22b9/OG3fJvI7GVB0dHbF7927s27cPV69etWAKZB6kXFRQUMDF0ezsLOfXgYEBZnr9/Pyg0+lYW0YrxKnYCwoKgre3Ny5evMgutAcPHuTpCDc3N2zq3oTDhw/Dw8MDTk5O2LRpE06dOsUxKJej/exnP8P9+/dx//59PH36lKcd8vPzWeswNTWFFy9e4MWLFxgfH+cCNC8vj8H/wMAAt6X1ej2MRiNu3ryJ3t5eREZGWmho6O+3atUqPg/37t1rcaZSnC5btsyC2VEyEZL1lN+vbC/JCQUJhGUeVLZwla0zZStM/r+MWYt1z7R6ecWKFVizZg02btzIYiNCQbKXaGdnx5QKjWnY2tpi+fLl2LRpE486paenIz09HUajkYNLr9ezpXFSUhKysrKQmZmJjIwMaDQaJCUl8egjjRdSFUbjZNQj0+l0THXJW0tLCyc1s9nMSLapqYlbHJmZmcjOzoZWq+WKzc/PD+fPn0dcXBwDDOl9YDabOZCk6xcBguHhYdTW1nJyfvz4MR48eIDZ2VmYzWa2gx4eHsb4+Dja29vR2NjIh8u1a9dw9epVBAcHIzg4GKGhofw5ioqKuLoMDQ3F8ePHcfz4cTg6OnKAyFXaMslIWpcCSgIJGUjWhDQyMS3mKvfPWgnWKqUlS5Yw2FisZyuFVrLCkglc2d+TlRS1Tah/uH79egubYJrj37p1K/bu3QuTycTxWV5ezjGVkZHB4tOenh5uMbS1tXEbKzc3l5OX0Wjk+NfpdAwo5+bmMDw8zMxSV1cX/P39cfToUWRkZODXv/41fv3rX2NwcJC9PM6fP4+99Xvh6+uLpqYmvi5KS0u54tq8eTMvCaNlN/Pz8/jwww+5TdDV1YW0tDQW+0rGTo5VdnR0WLTP6HPTZsquri709PTwa5M/x8aNGy1WQLu6umLfvn3cypFJUSlOlDFMP5ML4n784x9bVG/WDmLpsyATozzElWJEGUfKtpVc92wt8cqbsrqTh/+yZcv+AVRLQEDghR4rWwbyupB0snxuSUXLa1s+p4uLC9atW8f6AwJpr7zyCm92tLOzQ2ZmJsdRVVWVRYFCALSlpYVBwejoKOsG2traOF95eXkxQKDiq729nWn9lJQUxMbGIiwsjA/pK1eu8PVz4MABrGpaBUdHR8TFxSEwMBB+fn4WosiUlBR89tln+Oyzz/Dee+/h3XffxbvvvouFhQVexmcwGDA8PIzp6WksLCzgl7/8JX75y19ienoaAwMDLG5vbW1l/5GbN2/ixo0bFu+7tbUVExMT2LVrF3bt2sXOilRg0P0DBw5YfBck3pX5WLbIVq5cyW6M9H3JVpFk0ygOZOtCtqGUsSLjQ/5cAk4lI8sAQQa0vEBlP3bjxo1Ma0k0Q7QUoSdiEGhHw/bt2+Hm5sYIzWg0cmAUFBRw4kxNTUVubi6vBc3KymLfgLS0NK7ACgoK2Pu7uLjYwgeBqvj29nbu1zc2NjLyJbvNgoICVqPX1dXBaDTCYDCw93ZVVRXKysqg1+vZTMlgMLBxTX9/P7craEKBhGAjIyNsMlNTU8M0W09PDx4/fox79+7hxo0b0Ov1aGhowMDAAO7evYv+/n7cuHEDsbGxzA6kp6dzFRoaGspiINo6WVxcDI1GAzc3t29Q9qZNDAoI2VKiVFbSSpEKJQhlspJ93JdpEL4LQLCWUCVToKyslD1ba6p0axWjMinS55f/RpTq1q1beX0rCebs7e2xdetWGI1GlJSUsC5G9mCpOiINC8UcHbYajYZZL5lEExIS2MZ7cnISN27cQG9vLwsHVSoVzp8/j6tXr3I7S+pg9Ho9fAa/Wfes0+kYTKalpTHztHXrVq78uru72TTso48+Qm9vL/s3yHbJjRs32C731q1bDAqampqYySC2ra2tDQ0NDUzptre3c8zKbYDkTe/g4IAdO3Zg165dsLe350OfkqISMEg6XP7MGt2qZJtkxSYPadnrtxZzFHeLAQROli8BCMoD21p7QT6XUuBIr68UVFrrHys1E9biX8nCUD4gpnft2rWws7OzaMHZ2dlhz549OHDgAPLz8xkgGAwGBgglJSUWW2oJTFLO1Ov1FjsaPDw82LKeAHFXVxfq6+tRXFyM1NRUJCQkICwsjIvB6OhoLoIOHz7MACEmJoZjLSUlhQtEtVrNYvJPPvmEAcKbb76J/v5+dHV1oaKiAiMjI5iYmMDMzAzeeecdvPPOO5idncXIyAiGh4fR09ODuro6Njubn59nAydqIRuNRnR1dXHelcXYhg0beLrB1dWVQYHcRyQBArUZKKZJGyb3ZdB3J/Vl8lqQMSABgrVWgrJbIONssbj+gbyQKFDpTVN7QY5mSIAgxRpyXImCcceOHTh16hQfzBIgUNWemprKSzRycnKQkZHBq5ZJXUo9WPKtz8zMRFZWFgfmrVu3mPYldqG+vt5iHKuoqIgX5eTl5cFsNvOSmtbWVnR3d6Ovrw/Dw8OspqWK0GQyYWxsjFf40urdoqIi5Obm8uuNjo7i+fPneP78OWpqarhHbDQa8ezZMzx8+BDDw8O8C72/vx9Pnz7lvRChoaHc/y0vL2dQIH9eV1fH7ykvL4+nGGRwyrEaZUtBBolMsJK6ksJFa+iSAIIMqO8iPrSWVGUCVPaC5U2+J2XVRPeptUX/Li8y2bd1dHTk1a0EEDZs2MCV1caNG7n/bjAY+PsymUxoaWlh4Jafn4/BwUH09fXxwqaUlBRERkZynPf09HC1HRYWxu2ssbExNDc34+bNm7zTITExEVevXuXplpiYGAu9y+TkJK7cv4KamhokJyezeVZcXByPu+7YsYOZhZaWFiwsLGBhYQEff/wxenp60N7ejpqaGlRVVaG3txd3797lNdDEVNDvkJiSrg05MkmUbnNzMwvK5CIxcqjcuHEjNm3aBGdnZ4txR2opLF36rcui7OdKJkhOTslqSsaBpFiVPXzJkMl4lvEo40h54FuLeWUsW6Nvla9hLc7lz5VVnhIkKwGzNYZPtn+lyJMEolu2bOEcTZQ3va6trS1+8pOfwMvLi9lKWl0vmV/KwYWFhRaHtCzG6PHHjx9HcXExKioq2Jm2u7sbbW1t7J6bkpKCq1ev8gSbRqPhotDNzc0CICQmJrILLwHvyMhIvkZ++ctf4r333sN7772Hjz76CJOTkzxCPDo6irGxMYyPj7MBHhmC0VrnyspK1gS98847PPLY3d3NhanJZOJRTxJ+r169Glu2bOGJhtdff93CxE6KDGUbTvkd0lkqBahy2kwCZCUjIHM2xQqN3ipBhBLIypiTudzCB0FSd8QeODk5WTy5BAIbN2602G0tL+gVK1Zg8+bNOHToEFNBytFGovxJCJKcnIz4+HhkZmYiJiaGrW7poJQjNlFRUSx+NBgM3Hq4efMmT0rodDqmP6Ojoy28CEwmE4sKzWYz08IqlYrHtsLCwvj3tVotMx56vZ5fr6GhgYHDvXv3+P7MzAzP2tbX1+Ojjz7Chx9+iA8++ADz8/MYHh5GW1sbEhISeE4+NzeX+8pJSUkWs+3UblCpVEy/xcTE4PDhwzh8+DAvXaGFOeShsGnTJtYeKPuRUvEvA5eSL9FY1gJSKVJcbFxMKUpU0rbK5ClpWmVlaA2oyCROqFqONiqZhyVLlvCFu2XLFm4vbNiwgWN31apViIiIYKthOTpLrFZaWhpKS0uh0+lQWFiIgoICXr6VlZXFB+vY2BiPRdIeevJX6O3tRWdnJxoaGnD9+nUUFxejqqqKx8bq6uqg0+lYrBoaGgq3TjeEhYVh3759HP+UOBMTE1FeXs6/+9Of/pSp13/5l3/Bs2fPMDIygqysLPYBofd3+/ZtzM7O4o033uDk2d7ezkxGc3Mzz5339fXx4dHQ0MDVnhS82djYMLtob2+P3bt3w9HRkfOH7MHKKkwWHDL50QEnv3u5ZVYemjK5KjeYKsGBNVAgK7CXgWKZhBdjxpSMhTXHUCW4kBWijF05DiorT/k71loPP/7xj9n9duvWrfz3tbe3/wdReVRUFNLT09He3s6sWV1dHU+zyCJPthJ0Oh0LFktLS1lsHhERAZPJhMbGRoyNjbE9c3V1NZKSknD9+nWo1WpERUUhOTmZbekJIJw6dQqrmldhy5YtDMCTkpKg1+uZpaMJH7PZjPfffx9fffUVvvrqKzx//hxPnjzB1NQUiouL0dvbi+npaTx9+pSZXvIvqa2txdOnT9HV1YWBgQEsLCzgnXfewdtvv423334bt27dQkREBIKDg9Hc3Mx5d+3atZxP7ezsLFgD+pvb2tpaLWiIQaCfKR1d5XSZHIuUP7cGJiUzLGNeGYvK35VsG7fVZPVF/121ahXs7Oy4AiCUL6uD1atXY/v27SxelBvbyFLS0dERrq6unEBSU1NZZEisQnZ2NhISEhAVFYWEhASkpqZCrVbzoalWq/lgLigosFCH00ign58fo9qWlhbuhWVnZ3M1lZSUxAxCbm4uI9e4uDiEhYXB3d0de/fuhYuLC7Zs2cLiKnoNNzc3+Pj4wMfHB+Hh4fw5aDymoaEBxcXF3N6YmpriUTCanR8eHsbc3Bx++tOf4vHjx7h79y7blYaEhLBRVElJCVJSUjgJV1dXM62tUqmYTvbx8eHK8fDhw4xeKTHTTfZ4lfPoFBwvG6OyFlRKq+XFaNTFWg/ycaQ9kH1mek9UFSnpMQkK5PuTKFrStRTbr732Gsc1jUwRnU0XqYODAyIiIqDT6aDX61FVVWWx1paYK/LTMBqNqKurQ0lJCY/Pyh0gBC6io6O5dVVXV4fOzk6mWuPj45Gens7fMwl5tVotg0ZHR0esz1sPJycnnDlzhh9Lm0G1Wi0Le3NyctDV1YWvv/4aX3/9NV68eMGUqU6n40mKyclJLCwsoLOzE01NTXj48CFXgp2dnQxuRkdHufVQXFzM11V7ezu/D+mDQJtb7ezssGLFCuzdu5e1SkuXLmXLWTlVI/UIyv6s9EGQrQR6vFKwRY+TB7C1RGmNilX+fLEWgwQISkChbC0s9lpKTQ1dG4sJdunapMfLvCsPBgkili5dyocV9cqJwZGeFLt370ZsbCzS0tIs9Cfl5eU8Rku7Y2prazE4OMjXAk0A0Npwav9GRESgubkZLS0t6OzshNls5nHz+Ph4qNVqxMXFISEhAVlZWcjOzmaQkp6eDo1Gg22D2+Dt7Y3i4mIkJiYiNjYWVVVVnOflKvKZmRnWF3zxxRd4+PAhJiYmeFyTJumePn2Kp0+fYnp6mvM3AZzh4WE8efIEQ0NDzCwYjUZ4enriyJEjiIiIYI8ae3t7BrdUaBALSTfp6SFjljQjJMS1JtBVChOVANIaMyzjSeZZGUsSTMq8K8Hzj370o29Ein//+9/xP//zP5xEiR4kylomV1JbrlmzBs7OzlyJSXc00iQ4Ojri8OHDXPHSdEJBQQF0Oh0KCgqQlZWF2NhYhIeHIz4+HhkZGbwOWaPRsJFFRkYGB1xERAQ8PDywb98+7Nu3D56enpywmpubefyFtAxpaWnQarXIzc21EEZev34d4eHh8PPzw4EDB+Do6MjrqdesWYMdO3Zgz549fCNBYHBwMAOS0tJSDlQah6mtrcXU1BRmZmYwMzPDQhdS0L799tv46U9/iidPnkCtVuPy5csIDAy06PXJvxVVksSIkNrXw8ODaeZjx45xEqD1ztRrlAe/UvBCwSApeGWAUiCpVCqLKYa//vWvyM7O/gcnrpfpDqTjHD2v0ueAfq5U88rHyKpRAgSZQJV6C0qMFNcEEGRy3bBhA7Zu3QqVSoWsrCzk5eUxtUh6BGKiaNKBJgYqKipgMBhgMpmYthwaGuL2RFRUFDuD0kKYmpoaFBQUICEhgRmInJwcTnhSpLtmzRqsTP9mVO3ixYscExqNhttwRUVFnFwbGxtZ7Pjhhx9ibm4O/f39KCkpgdlsxq1btzA1NYUnT56wrubBgwcMNrq6ulh0S451PT09FiJMuTdi3bp1FkZJ9vb22LhxI2xsbLBv3z4GCFT908ijZLIkQFBO3ygV3pL1UsYG/deaWZdMoNYqbnmYZ2VlWQCEv/71rygpKbFajb0MIChbZ/L9ymqPRiitAQR53dLvyMkl+beRGo5ly5ZZ5AYCW8T8rl69GnZ2djh48CDi4uKQlpZmAQ4JANTU1FjE8+joqFWHUQkcIiIimG1ta2tDbW0tt0nJHI+8EGhijXaV0M151Bl+fn4oLS1l5pQcGGl6iAD8+Pg4Pv/8c3z++ef4+uuv8fDhQ4yPj0On07HurKamhltk9+7d46KupaUF3d3dGB4e5iVpQ0NDGB8fR3l5OZvXBQQEMECgvykxkTK30H36OyvzKzG6BBAIPMixSBLiWgMIEkQrmVJrsbyY0FXm3VdeeQVxcXHfxryNjQ3+93//F3/5y18sxBTr1q3jKksCBLkUiCyVaZOVXBZkZ2cHJycnHDx4kBNOeno63yfTGRIPRkdHs3nG9evXodfrUVNTg+vXr8PT0xOenp7MSLi6uvLGSKLUybCJfA4qKioQERHBs7WU6PV6PSorK3H69GmcOHECLi4uWLNmDQMNf39/JCcnIz09HRkZGWxG4+bmxnPdbm5u7JRHqnViJajaq6urYzMl6vEODQ2hubkZTU1N6OnpYaFXV1cXmpubUVFRwWwLJXFK5IRyo6KiODh9fX15OdTp06eZQZDJVYq2li1bxpacskeppK6kMY2cR//v//5vnD59GsuWfTPF8Oc//xlFRUX/gFIXAwhK8CAZBwpcqdJVsgbyIqMkt2LFCovXoItMGkERC0KfbfPmzbC3t+dFTXRIvfrqq7C3t4ezszOysrKg0WiQkJAAs9nM/U7Z+qFFXz09PWxKZDQakZyczAByfn6egd7p06eZkejp6UFjYyPrX7RaLdvQJiQkWABbioP09HQc6zqGa9eusftofHw894b1er0F22QymfDgwQM8ePAA//7v/47Hjx+zLTONCtMmR9qONzg4yK8dHh7Oo7z5+fls3KVSqfgxWVlZ7JhIbpQ2NjacJO3t7bFhwwZs374dW7duhYODA+cQKiaUI3r0vStNrygRypiUj5csg0yMMrZldS4rbhmbS5cu5WmDTz/91AIg/PnPf4bBYPg/xbyyJaH8XaVXx/9LzBMAtqbHoZinQ0sZ86QRycrKQmJi4neKedLdUAvqn8V8RUWF1ZiPjo7mmKf2nTLm90/v55hPTEz8P8f89PQ0xzy1o0mzRjHf29vLMZ+RkcExHxkZyTGfkpLynWKeXCpp5JFintgbuf1UGfMU3/+vMU9xL9kmmU+lkFEyDBT/P/zhD3H37t1vY/7VV1/FRx999A/OW0QRKgGCra0tgwg7OzsLBad069qwYQO2bduGAwcOMCjIysqyAAgGgwHl5eXIzc3lbY3BwcGIi4tDYWEhysrKoFKpcOzYMRw7dgzbt2/nKn779u18IDo6OsLZ2RnOzs4WalqVSsWtiqysLK4Cafzm2LFj2LlzJzZs2ICDBw/i5MmTCA4ORnJyMk9R0Ez48ePHcejQIRw6dAg/+clPEBAQgICAAFRXV3O7ISMjg3vBRqORL6TJyUneEkY9Z7lOlGxsq6uruVrMz8/ni/LGjRsWux/ofXh7e3MfmoyTaBeDEiAQSFACBGtmNHJEShovbdq0Cb/97W8ZIKxevRr/+Z//uWiCVLYY5OOkHkEmT8kIKNsJ8nNIHcU/Awh0kdDnkBexrGJfffVVbNmyBfv27UN+fj4nS5PJZJEsiUHo6OjgUaj6+np0dnbCYDAgMTGRq5/Z2VlOXqdPn0ZRURHKy8tx48YNNDU1sS9CSkoKoqOjERERgfj4eGYEkpKSWASblpaG4zeOIyIiAjk5OTwlo9fruWIzGAzcYmhoaOBk+dVXX+H+/fsYGxtDXV0di63IYZEmMfr7+1knpFaruYosKSlh/U9MTAx/pvz8fFZ0S9GyNOFZv349AwRqgRGTJQWJMllSjCpBgvLnMlnKx0iAICldSal+F4Dw97//HQAYIKxZswb/9V//xezEy0y/lMyCbDfQNSF7xjLmXwYQlDEv/170e/JgkDFPnh8U88uXL4eDgwP27t2L/Px87vFLv4OUlBSOfxLsdXd3s519R0cHkpKSWDcwNzfHOfHcuXPsaUPj3NRuSE5O5sktjUbDoDMlJYUBQnJyMvbe3osrV64gPz+fN/+WlZVxG0MChLq6OtYXfPXVV7h37x4mJiZQU1PDI5rt7e24ffs2bt++zePmAwMDyM3NRWhoKFJSUtDT04OcnBxERkYiMDAQarWadXT5+fncet68eTPHIsW8vb09xzy14SUoIMbhZQBBqQ+TI5Mvi3mKN2s6BWuslSzQCCBMTk5+G/NS2EMBamNjw3T75s2bLVz6pDp527ZtfJ+AAo06kvHG/v37Lfy6pQLWYDCguLgYarUafn5+uHjxIvz9/XHt2jUEBQUhICAAO3fuZKrm0qVLXK0bjUYWEB4/fpyre29vbw5UUrySSpbWLV+6dAnOzs5sGuLh4cH9fGo/JCYmIioqit9vcHAwvLy84OXlhZMnTzJwSE5O5hYD+ZZXVlYiOTmZzT5yc3Px0Ucf4YMPPsBbb72FiooKVqGHhoais7MT09PTmJ2dZeQdEhLCNG5lZSVfDGQ+4ufnBzc3N24xnDp1ilGqFCxKJCq9AZTqcGVvVwIEGWwUYFKD8DLxi7VxRwkKlPSvRLnK55XvVb5HCSiUY3JKoc+qVatYY0JAl8CUjY0NPDw8EB4ejps3b0Kr1SIhIQFGo5EPaZqsyc7ORmZmJoPRsrIydHZ2oqKiAjExMUzz9/b28nd09uxZxMfHIyUlhYFfR0cHWltbOV7JfIiAYlhYGNO4iYmJODNyhtsQ9BpqtdrCaZPicWhoCG+88QbeeOMNbiNQb1nugCAGhEa85C4SGm2cnJzkMd+SkhLWVZAXRE1NDS5evGgxwkW2yra2tnBxcbFof0kBqVJx/9prr2Ht2rUWiVL6esif03cn2w1KdTfFJN2XkwCS3ldOIciDnACCjPl/ZhSmjG158CuBs7L9oATqJBCnzyrf92IAQWrGqBVMBREdVsuXL8fhw4cREhKCnp4e1tuQL0tWVhaKioq4sEpPT+dc1Nvby/GRmJjIi5sGBwc5T0dFRcHf3x9BQUFISkpCY2Mjs7zUPiazPNIgJCUlcVvC39+fNQikH2hpaUFWVhbnStrtk5ubi5KSEo7fR48e8fiuyWRCd3c3BgYGMD4+zqJLs9mM+fl53LlzB6Ojo3B1dcXp06eZDY6NjUVMTAxu3ryJiYkJTE1Nobe3l8+Fc+fOsYDWxubbHQ2rV69mrwTJdpPXkGwLUT6W8S8BwiuvvML/Lw9/eS3InCg1Z8pYUYIFZeuLgDJdIz9QCmAI4RDSpwRKT0itBRoLow8q1ZwkcnRxcYG7uztrAqRNJ1XcpFrVaDS8b9vHxwfHjh3D0aNHcfr0aU7Ig4OD/MW2t7fzaMvMzAxXbNJ7/Ny5czw3e+bMGTg7O2Pnzp2s8HdycoKzszMOHjyI06dPIyQkBCUlJUxz0chLTU0NMjMzeZwrMDCQZ9AzMzM5WRLoMRgMiI6O5seHhIRgbm4OCwsL+OKLLxitenp64uzZs8jNzYXBYMDc3BxXgjExMZz0qZpTq9XQaDQ8ZXHixAlWuHt4eJmTMMIAACAASURBVDCgI/EXfS9KDcKaNWssaF5lD2sx8Ze8L50UyZteHuZkubwYWFhsLFJWfvJ3SS+hFFTKfp0ED2S/S6hYHkQ7d+7Ejh07LARbVNUGBAQgNzeXLZCNRiP0ej33+/Py8rhyr6ysREJCAtRqNfz9/dnEioBfaGgonjx5wnFw5coVFBUVQa/Xo62tje29b9y4gfz8fMTHx7PtLAEEuRtBq9UiYCYAJSUlUKlU3I5KS0tjEGEwGFh9/ujRI3z44Yf48MMPMT09DZ1Oh7KyMjQ2NjJAePPNN/Hee++htbWVqyxZIZIGoaurixmx7u5uHoUkMebo6CiMRqOFs6GtrS0Dgj179sDJyQl2dnZYsmQJbG1tedqBdAa2trYWlZK1KkipkVlMo0LxQKBTalEksyAPbGt928UAgmS9FtPbLPZYZZxLYeRiQF0eALJvLD+3FMORDoGuA2rB7tixg2N+7dq1eOWVV1jD1dzcjLS0NGg0GqSnp1sUYwQWNBoNW4eTjuv69esWeoKamhoeifXz84OPjw98fX0RFBTEbEJlZSWSkpKg0+nYjp629ba2tnKh5enpidUtq7Ft2zZERkaio6MDk5OTqKur40mJyspKvj5puoLcbsnfxmw248mTJ7hz5w7Gx8c5xsmquampCZOTkzh37hyioqL4Z+T4e/fuXUxNTXHLmPRlXV1dbI+/evVqZnFXrVrF+Xjr1q0WDrfynKTzVWpG6Bym71aez/L7lUBDskryMdJMSd6kBkeyWco28A/khUcJl9oHhIykUcnq1av551KDIA8lqh6cnJxw+PBhTl6NjY18AOp0Oh5tpB4U+XMHBQUhKioKcXFxSExM5MORRmTk3oXe3l6MjY2x+t/Ozo4pnEOHDuHkyZM4efIkDh48yEIdFxcXbN++Hc7Ozti7dy9cXV1x8eJFREREoKSkxEJISdUY0bY5OTm8lCc8PBxarZY96qXIUK5I9fHxQWlpKaqqqjA4OIjm5mbodDpERkbyroWysjJWyxqNRsTGxvLzSp/y+Ph4ZhDc3d0ZIJw7d44pLRk40pGOXOno+5KLQWTwyOpDKeiyBhCkSFEmQbnxTtlekElTJmEpHJMgQVZ4MrErWyPEkCh70fTzV199la3BabcIxfzKlSsRHBzMbps0LqjX6zkmaMqGKMfw8HD2LggPD0dsbCyLBYuKitDf388A4dq1a1z5NDY2sodCd3c3dDoda3SIxSImi167oKAAAbPfAASaeqDJB4p/0u7U1NTgwYMH+MUvfoFf/OIXGB4eRm5uLi/NoWVTt2/fxsLCAjo6OtDQ0ICysjK+vjo7O9mAjCYu6uvr0dXVxQcAeUO0tLTAYDDwbhZZ9a9Zswa7du3C1q1bsW7dOixf/o1rK62OtyZGVFKtEihKARfFo4wDOfWiFGdJsCAPY1nJK+NvMYDwMgDwz25KUSP9v9RISJAgwblsk0jgsGLFCovPKatL+l7IB4FEikuWLIG3tzcyMjLQ0NDAAIEAqVarRXl5OcdzYmIiF2wajYZ1MFS8aDQa1NTU8AF86dIleHt7w8fHB35+frxTp7y8HHl5eSgpKUFZWRlqa2t5ZLi1tZXbDfv27cPa1m92/pw/fx719fUYGBhAa2srv6eKigoLgEx5s6WlBYWFhexjMj8/j7m5OczOznL8VldXMxiYnp5GWFgY4uPjYTQa0dLSwjsYpqameEnZ1NQUi5BbW1tZj0Z+KtRud3BwgIODAztWktZL6fEhheMEjOl7o1iVjIA8/CUTIRkwKfaVxZ61SR3ZKpMA4ZVXXvkWIEjUSuhy06ZNHFD0pqhCWLduHfdxN2zYwCpOYhLo93fu3Mn0FH2xra2tKC8vR0ZGBlsGJyQkICYmBuHh4UhKSmIR39DQEBsOdXd38yhKW1ubBc1JQbF7925ue9AfmmhyUvUfPnwYu3btsliXfOXKFbatJZWt7L3pdDoO+qSkJE76169f5z7tzZs3OVDl3ojdu3djz549OHToEC8vqaioQHNzMzQaDXJyclBYWIiJiQlOtvHx8Vy9EY1MI0GEWD09PblSValUrE1QGs5QAC5fvpx77vRvymqcqmwKPBkbEp0q6Vb6ubVqSlklSaBBugipIZCvJ5MlxerKlSutomUCQ8SUKCtNet5t27bxYUXPT5WspPRpi11ZWRl/l2RgRLF67tw5nDlzBu7u7ti+fTsuX77MY1JPnjxBdnY2Pz4qKopbDNXV1RgZGWH7Yxp/pH0OBBDKyspYoGoymRA4F8g25VQ10URQQUEB7yzR6XRYWFjgKYaOjg7WNKjValRXV7NNNK0i7+7utjDiop0kExMT6OjoYFajs7OTwTIBpezsbBgMBhb1Sgc52iBIUyMSEChbQtJxTk7iyKQovRKUvhekCFfS+jLPyZaqbFMpD3Cq3Oi+coPpyw58CRhetlJaggt5jUndDH0mZf+YbhJUyetCxj8BBBo7pWvcxsYGFy5cYCvt9PR0JCUlMZtFuzYoJkjATRQ8gYLY2Fim3cloqKOjA8HBwfD29ub2LDET5IBbXl7OjAIxAm1tbdyWW7NmDdZ3rMeePXuwe/duFBQUoKWlBcPDw9zek6PmZrOZz4i8vDzEx8ezF83Q0BBmZ2d5hJEmMug6v3v3Lpvw5efno7OzE+3t7Whra0NfXx8vchoYGODfN5vNzKjI4lS2dRwcHCwKNNnSpLYCxT7laZmzlC1VWcgpd+9Ya0fJ9oSS6aUbAQQCoAwQrNFZpEFwcnJiDYCkNYg6cXJyYs918va2t7e36Btu3LiRXacKCgoYIOh0OkRFRSEsLAze3t44deoUj1aRBfGjR48wOzvLgdra2sqgYHR0lI1benp6GBHGxsZyC4GYELK+PHr0KF5//XXs378f4eHhCA0NxaVLl3D69GmcOnWKtQi0slev1/PozvDwMFO3V65c4YO5sbGR7Wzps7W2tiI3N5dRMLVUUlNTefJAo9FAr9cjKSmJvfzv3bvHlqHDw8OctGmhT2trK65cucICmcDAQL5AQ0NDWai5YsUKiwpDjjVJtLrY3PlilYus0pQA4btsaZRBqey7SkZAUr3Wbj/60Y8sYlUmSGqbKA8FyZKQoQkZmNCF5uDggGvXrvF2t+zsbGRlZSEuLo6nRfLz81n74uvra1G9lJaWoq2tDY8ePeJDOjY2lk2uwsPDER0dzWO8jx8/xtTUFLq6ulBWVsZ24xqNxsLmllw0o6Ki4DP0jdVyamoqf/e0UEaax+Tm5uLzzz/HH/7wB/zhD39ARkYGMjMzmaUgK129Xo9bt27h8ePHePPNN/H48WNu3T1//pxjW66gvnTpEjNoxcXFzF5UVVXxSDCpuqkVuX//fmzbto2TJ33PsgUmQZ1sHcnvWP5MqdCWrSapq5H6GWXvnv6fDmE5dUCJUwIEa9sclSBACQysAWQJYCRwoWuDwIK8DiW4liwHPUYCZkllL1u2jL+XDRs2WFwTK1euxNmzZ9mxlrxnDAYDC2VjY2OtWr2r1WqLVhgxm/Hx8QwaPTw8cOzYMdb2yPisra1FYWEhsrOzkZ+fz8uQurq6OMe5uLhg+9B2nD59GnZ2dqzNmp6eZi2E9ESgyZzW1lYkJSXBy8sLFy5cQGJiIoqLi9HY2MjM2e3bt1FVVYXbt29jcnISra2tePbsGRdlZLF+69Yttoju7OxEY2Mjs3TScVJOMaxevZqnzaTL7YoVKyxMwSgPUztfaUxH4NWa+FSpH7A2BitbUMqRRmsFm1L79QPlhUdv2N7eHk5OTnBxccHGjRsZ6VD/mmxpiUaRY02kYaBtbhScJFYJCgqCq6srnJ2dsWvXLhw8eBDR0dEoKyvDwMAA7t+/jydPnuDZs2fo7Ozk4CR7YvLXJqTY39/PVGhXVxfT7tTztLOzw+uvv46oqChER0cjJSWFaWONRgN/f3/4+PjA3d0dp06dYrFkamoqV/QtLS18wXh4eLAgp7m5mVeHDg8PswYhKyuLK0dKyNnZ2YiPj8e5c+cQHR2NkpIS3vY4MzODubk5/hzz8/N8f2JigseJWltbue935coVZjK8vLy49SMRJTEndJNCGElxKdWxMgglvUX3pZMieRkoBVuyfSApVAIK1sYcZfJTXgCSirWWCKVBkrInTa2vFStWMOsld7YvX/7NdkcySCKdgUajQVhYGH+XREk2Njbyps3U1FRkZ2ejsbERfX19ePToEcdmVlYWM2BpaWnsApqfn4+HDx9yb7OhoQE6nY7d4ijpSLtwf39/7KrZxWCaQKpcg15YWMjA8k9/+hNrELRaLZKTk5GRkcFgghzyPvnkE3z88cf4+OOP8d5773HyvHXrlsXhT/FfUlLCfh8dHR1sCKbX6y2EzdTSo30Mjo6OzCxQvFH/VOnRIQ9xpemPtWpKHvBSj6JsK8gDWAJbZStNxrA1gECttZdpaqyBZXmwy+emz6tkzSRYlqyB1FrI68Vaj5raatu3b+dlesSurlq1Cl5eXkhISEBhYSHb0jc1NXG7NCsri2ONdAPSQZQM7KjqJyBMo+uenp7w9fVFeno6ysvLodfrUVJSgoaGBs7DZWVl6Ovrw8DAAFJTUxlsnDhxAlsHtuLUqVM4ceIEQkNDERUVxe0DsugnkN7Q0MDxGBUVBR8fH5w7dw5Xr15FXl4eqqurub1GGoWZmRlMT0+jp6eHl+6ZTCbWRtCWX/JQkJqH2NhYZtOkD8Jrr73GDMLGjRt5ikGOoMspM7omKIdRPqMDW14L1gSqUqBtTb+iBAhKFsta62HJkiX4AVF+si+yatUqbNq0CU5OTryxSo4wEo2ydu1aBgg0Eklzz05OTlzJE8tw4sQJtqikw8rW1ha7du1CWloa6urqMDo6yiYWz58/h9lsZoFMbW0tVzetra1c0Q8ODlp4DhCq3bt3L39hbm5uTB/V1NSgubmZtQUhISG86vbUqVM4c+YMK87JRKOuro4PY1dXV/ZmaG1txQcffIAPPvgAt2/fZo1FZmYmmzolJSXxDoicnBz4+PhApVKhpKQEz58/x9OnT/HkyRPMzs5aKHDpM83OznLSn5ub48MjPDycX+PYsWMW1K2stMj4SfZ46UY2tzLBykNaVmby/ncBCJSAZTDKRLgYQJA0qTW0LC8OCRCkZkKpq5DmUQQQHB0d+SJcunQp9u/fD5VKhcLCQqhUKsTGxiIuLg7BwcHcayXL2LGxMdaGXL9+HWlpacw0ySpcp9MxmCwoKEBoaCgiIyNRVlaGhw8fYmFhAffv30d7eztKSkqYeaIqjdaAG41GnD17FpuLN2Pfvn3QarXsS5CXl8dsVXFxMR/wf/vb37jVQavUMzMzua/a3NyMnp4e/Pa3v8WvfvUrfP755/j44495OylZQF+/ft2izdLa2sqCxaGhIWYZSktLGaTSqnd5ozxB8SYZH8o7dF8mRdkKk20BKViU/Xeiab8LQJBxKxOpNaGsjHklQPhnOgNrgEN5kwBBmdzl30OC9lWrVlm05+ShIStVysF0SNHfbPXq1fD09ERsbCx7dNA4I40a6nQ6PrCjoqL4cJQOoxEREbh06RIuXbqEK1eu8ASXRqOBl5cXzp07h8LCQl6IV15ejubmZtY3GAwGpu7Dw8Mt/F229G+Bp6cnb3EMDw9HdXU1g5O0tDR+H62trZw3w8PD4evri7NnzyIoKAg5OTmoqqpCe3s7x29NTQ3rEgYGBjAxMcHsLZkx0ThyVVUVKioqUFpayizIlStXuLUiNQg2NjYWu0jovJQAYc2aNRyLVNTRdydtmGXMy3a/EgRQfpOtKSUj+zKAoNTgLFmyxFKkKNWtdHjb2dlh165d7Kwoqb/Vq1dzxUBmEOSiSNvydu/ebTE1QH8oe3t7uLq6ws3NDWfPnmW7WkrAw8PDGBoawvPnz1ksNjQ0ZCGOks5dZJ05Pz/PSc3NzY0TJ1FCNTU1vKr31q1bGBgYYIOMgIAAZjmCg4PZ5fDy5cvw9/dnyujKlSusO5iZmWE0mpOTw3RwamoqU7KksUhOTkZxcTFCQkIYeT5+/Bh37tzB7OwsHj16xOZJU1NTFq9BOx4qKyv5YNi5cyejVPJVJ9cuGRRUnVGPjEChBAVSiKqs2GRikhoECRCs9bWWLl1qkYCVLQYlClbeJKCQYhsllUq31atX83uhx1tjEygGSVFPdPjKlStx6dIlZGVl8dhfXV0dCgoKGJTV1dWx3oVGHdPS0hAdHc1Aoby8nB+Tm5vLyZK2NQYHB6O4uBi3bt3iFbS9vb3Q6XRIS0tDRkYG/w7tJqFRW/eb7oiKikJubi7rUurq6pjxyMvLwx//+Ef88Y9/xBdffMEAISQkBBcuXEBkZCSqq6sRHR3N7qQffPABPv/8c/zqV7/C6Ogo6x/i4+P5kGhubmZGa2hoiIWMz549Ywbt4cOHHI80TbR27Vrs3r0bLi4ubMmuBK8UO7RVk5YISa0BMQtyA96SJZbiLZnYZPtAmfSU1bpSX6Os8rkfKxgECS6UjIPU3VgDBYsJcWW7gT6/BO30OJn0ZftFjsstWbKEK8rly5dzDqYcvnLlShaMHjt2DFFRUTy22NLSgra2Nv7uW1tbuTgKDw/nFhu1xKgNR4/x9fVlzUF4eDjCwsIQGRmJ2tpalJaW8lgj+eCUlZVhYWEBT548wdOnT1FXV8eMQGVlJTyeebAt//Xr1xETE4OwsDBuMUh304aGBtZutbS0sEbIy8sLsbGxiI+PR3JyMoNu2uJ469Yt3L59G93d3WhpabHQRtTU1DA7R8wJ6TCio6P5WqW2pa2tLdatW8ct3/Xr11sUZBSzlIslGCB2R8ahvF5knlberOmtpKBVAg3J4sqiTMmG/UAq3OnNSbUlHfYSGUnFJSUEWgRCt927d+PIkSM4deoUGx2RKjsxMRHXrl3jccGcnByLFc3Dw8O4efMmurq6MDExwRXN7Ows77cvKipiqrejo4PHrurr6/k1pEc9gYH+/n60tLTAZDKhoaEBbW1t7EugUqkQEBDAIpW0tDROwqGhoVytm81mrvTffPNNfk9jY2MWyJJGLK9evcoJPC4ujn0UAgMDMTg4yItyqJq8f/8+5ubmGNCo1WreuSD3WcTHx3MvmEDcxo0b8dprr1ksDVFudpTVh7UxR6VvgpwekNWUtT6tsopSjtDIhK1Es0o2QZlEJYVMQSyZArlNkA4WqbOg15P+B9R2oLgOCgpCYWEh3nrrLQwNDXGlQaN8N27c4MO/r6+Pl9mEhYXB19cX/v7+DBauX7+OY8eO8f2UlBR4eXnhzJkzUKlU6OzsxMzMDF68eIH+/n7k5uYiISEBERERHEeRkZEcg/n5+fCb9ENeXh771yckJCAyMpKrt3v37vGymi+++ILZBDc3N5w4cQIBAQEoKipCSkoKQkJC4OXlhevXr7NFdHl5uYUaneJ8YmICz549w7NnzzA/P89bS41GI+tmxsbG+ICXVDaBUzl7T4fUsmXfCJ9pokGKrOj7kmIsKcqTIsUlS5ZYCLaUAEEWQhL8Wos1ZSuAgMBiAEE+XulvIONXPpcEFcr2mXJiwVpbwlqbRTIqEpy/9tprnJdpsyCNOy9fvhzHjx9HVFQUpqen0d3djfb2dpjNZq7KOzo6eITxwoUL3DKjlgPZgZN5nK+vLzw8PODh4cFuibRQjLY9mkwmjIyM4NGjR3jrrbfw4MEDXhI2Pj7Or63X63H0/lEWs0dFRSEmJgahoaF8XdBBTbtOSLDY0tLCDrWXL1+Gj48PjyBTDpVMRF5eHsrKylBRUcHr3gkQFBUVoaWlBR0dHSgrK+PCMy8vjyfliL2lG/kgODg4WHzHUvdFzC4VZfTdyINeggLZClYCZAkQrOkXlCyUBK9KkEu3H8iE+l0BgqR0KfC2bNliwRTs3bsXr7/+Ory9vVl1T3/UtLQ09gdQqVQoKChgC2JytiKAMD4+zgfw3Nwc05m0fEMJEGprazlok5KSGCAQHTo4OMgroam/VFVVxWt6AwMDWSGenp5utd9P1GxPTw/efvttfk9TU1MceBTMNN5GI0GxsbHw9PTE6dOn4e/vz5v0yCeBbnfu3GHhTVRUFKvDtVotU3zJycn8Grt377ZwUqTWijSvUgIEqSKXSUYqy5cv/3ZuXKnolklRqS2wRrcqkS0F8mIAwVrlt3TpNxa8lIjloUKHjGS4pL5GAgTZB1QCBJ1Oh3fffZenDAYHB1nN393dzQrtwcFBtLW1wWQysdj24sWLiIyMZCbp6NGj3J7QarXw8vLC6dOnER4ejs7OTszOzuLnP/85BgYG2B1RLgOTAEGn0+Hi1EUUFBTwWlyNRoOIiAju/z569AhffvklvvzyS3zxxRcs5D169KgFQNBqtQgKCoKHhweioqLYb1+v1/Pz1tfX8yjx1NSUhX89bbmrrKxkgDA6Omox5SRpUWKvCCBQblm2bBmPTMvvUs70Sx2N7LXKVtqSJUv4McpxMFmhy+Qs/03GmhKkfheAQI99mQHSdwUIdF28DCDIos4aQFi2bBm/1ooVKywAAjHFEiBER0dzK5PaC3RAd3Z2cgyeP38e586dw7lz5xASEsJ5NiUlhZlNCRDS0tJYv5OQkMC+B42NjRgfH8ezZ8/w3nvv4eHDh3j48CEePXqEqakpC4Dw+v3XkZiYiMuXL/O1FRoayqAlLS2NizG9Xs/MBx3oRqMRV65cYcHi5cuX+foyGo3Iy8vjTcM0FVFdXc3bWsm7gbQI5eXlfI4VFBRwu1kJEHbv3s1bTBcDCNT+lTmIGDOKAQmWleJFa+1fumaUDLAECErGTcnucp6nhCqROV28kvLbunUrtm3bZrElUIrh1q79ZlaVxDBHjhzBpUuXkJ6ezhT8xMQEVzQdHR28JYwq+9HRUUxPT8NkMnHVJgHCrVu3WKw3PDzMibq/v58Zhnv37nH/V6/Xs+MhjWFRpUQ7zktLS7kKp4VRNAM8NjbGvX9S2ubn56O0tJQrymfPnuHdd9/lG31WaetM0woJCQlQqVTMtuzYsQNqtZqX90xOTjLwMBqNLLZ0c3NjI6i2tjY+fI4fP26xMUzSW3LMRW4spKqZUKmcYJBz0zLxKh9PIsWXTSvIvqq1g1+ZnGXQUkyRIEfZjpCPUbYZpF24VK/LZEqfc/Pmzf9A67m5uSEkJARPnjxh7Yl0FOzp6eEYjIuLw/j4OPr6+nD9+nX4+vriwoULCA0N5SorODiYD29vb28kJSUhKysLvb290Gq16O/vx29+8xt8+umnXL3v37/fYsSMxIFarRYZP8/AnTt30N3dzTEr15KPj4/zNrsHDx6w/iE/Px/Jyck8ktbU1IT8/Hxcv34drq6u8PX15aqQWivyep2enmY2xWQyWTh70rWQmZnJtOq2bdtgb2+PrVu34ty5c9i1axfs7e35sFcaXNHhZm08S1lBSdZLqvwpNiVglYct3aQw0VoMLsZiyZiXehsCDNamF+TzSzZNAgRrrTXldSWB+pIlSyxaCdYU7vIz036cdevWwdHR0aI3vXz5ctYH9Pb2oqamhs2DqLIuLS21EB2SYJG24+bn50OtVnOsnT17lmNeo9HA09MT3t7eiI2NRXNzM/r6+nDnzh0Wo7/xxhv49NNPcf/+fdy7dw/Nzc2cq/Py8uD+1B15eXnQaDTsZBoYGMiv4e/vzzt6/Pz8LNoT1IKorKzExYsXcf78eYv3R5bS5eXl3AbOy8tjDwQa+7158yafNyaTiUcbh4eHeUqPmC8qOuhaIE0BsZXSBVTGsASxxC5I1k0CQNl+otwo3UYlCJFFmYzHxcS0MtZ+IINFaTpDKN3W1pbFFhs2bLCoxOiDb9q0iVdEu7i4ICkpiVc00wwtWbZOTk5iYGAAJpMJ7e3tmJubY5DQ19eHlpYW3LhxAz09PTAYDNx/Hx0d5RGWxsZGZgeGh4dZgzAyMsIJS6fTcSBQu2JiYgLz8/OYmJhAX18f6uvrodVqUVZWBpPJxL9z5swZpKens+iwtbWVEa3RaGT24vnz5/jiiy/wxRdfWLAJzc3N3J87c+YMOziuXbsWGzduhI+PDwoKCtDf38/ztjqdjgN9//79fH/Pnj28uVKlUjHwoODX6/W4dOmSxXSCteQqe5SEWK2JXGSykgeqVNBKDcJiSm2ZZOVUg3LdszJZytci2k2pO5DTF4v11ZQtBFnRkleHg4ODBTNG4tyOjg42vgoMDORRxdLSUgag7e3t6OjoYMBKBzBVNnFxcfD29saFCxdw4cIFJCUl8SiW0Whk/YJWq2Xhrclkglqthq+vL3x9faFWq1l3c+bMGST8LIG1KfS8Fy9eZGD54Ycf8r/X1NRwe4+2g5aUlKCurg75+fkswPTz88Px48fh5uaGc+fOcU91YGCAr1eTycS9XYPBwFWaXq9ncJ6YmMgJ0s7ODvv27cOhQ4cQGBjIXin0t6fV0PQ9US5RjqySmEuyR0rWkwACxZs0mZH9e6UORoJUeV+ZMBdrqy0GkJUjv3Qt/DM/BOV7UjIL8tqxNlmkZHclc0LXC/naSAbHy8sLWq0WVVVViI+PZ40LsafJycnMApDQr6qqyiL/JCUlcazt37+f9Vfe3t7w8PDAyZMn4e/vj1u3bmFubg4ffPABi3rpPKADWKvVMiOgVqvhescVsbGxuHbtGhITE1nfRbtBzp49y2ORR48eZVZVp9Ph0qVLCAoKQnR0NLdlL1++zC1btVqN6elpjI+PIykpifN7R0cHhoeHeRnbgwcPuLAcGhpi/dtnn33G14KNjY1F8ezi4gIXFxcL1lYymsTQyqJHAmEqdJTAQCkLkNeAtVaCNZMligtrgEHG7PcA4XuA8D1A+B4gfA8QvgcI3wOE7wHCPwIEuijlk1Efj1SXK1asgIuLC/e5pdWyXOLk4OCALVu24MiRI0hLS+MVnzRL3d7ezpT90NAQent7MTQ0hPn5eTx69Ahvv/02B7BnhgAAIABJREFUPv74Y/zrv/4r3nrrLVb4kyisqamJ2w1Pnz5lIDA8PMyjZ+Pj45xQ5Yhkd3c3JicnMTExgf7+fjx8+BAzMzPo7u7mHRFarRYnT57E66+/jiNHjkClUvEscGNjIyf21NRUnrX9/e9/z3a22dnZnNiDgoL4s7a2tiIxMRFarRalpaUYGhrC5OQk7t69i4WFBUxOTmJ0dBQjIyNM6RqNRp6vPXv2LI8ZqdVqptDa2tr48X5+fqxBoHEa6sNLRbmcYpBggdpEZFwjEycd+JLOV5rGKMVY1kRbSpU5BaPSBEYe+PT/RJvKlgBRqtYElUrAS+NdlEhtbL7ZOEh/D7pwabqBqEWz2czjVqdPn0Z8fDwDNAkU29raWKyl1WqZ8ndzc2PNSFtbGzIyMpCamoq4uDhEREQgNTUVRqMR7777Lp4+fYpHjx6hra2NR3X379/P7YojR45gn2kfzpw5g5CQEB4Fy87OxosXL/DixQu88847vKDpzp073KYyGo149OgRnj17hvfffx8jIyMoLy9HfHw8DAYD1Go1VCoVb65Tq9XIzc1lQD46OsqTHJmZmUwtm0wm7h+rVCrWvpCTKrmxyv4q7b0gICsTprXkp+yvyu9bqTOgOKE+7ssSobwvHyNjUz5GqbuRYMHaNWANLMvXIKHYYklagmLle5UtQAmcrflF0MSSjY0NnJ2dGWCQkPTkyZO8SCkwMBDe3t6s9qc1zhUVFaioqGBLbYPBwMVTWVkZkpOTuaA5cuQI56t9+/bB2dkZLi4uOHjwILeJm5qaUF9fz2Lw2NhYjueYmBgWPEZERGDP1B5cvnwZx44dQ1xcHDIyMqBWq1mMHhYWxjoAefgHBQXB39+fF6W1t7ejsrISmZmZnKfPnz+PO3fuYGZmhqcn6urq0NfXh8ePH3MhSXb+BQUF/6BDojwvC+Y1a9Zwi0ECXzKqkrnt1VdfxZo1a9gHhM5e2UK1Fv/Ka4SeV4IJGR8yt1qLO8rVS5d+u0zsB7LvQG9OVmk0q0l9c+otUj9R/kHIFnXbtm0IDAxEfn4+pqam+PDu6+vDzZs3cfPmTdy+fZt3g/f19eH58+eYmZlBT08Pnj59igcPHrBYj4RWjY2NnJxbW1u5L5yZmcn3CfkNDw8jMzOT+7TU16dxyoaGBn5tk8mEyMhIeHt7s2mSt7c3AgMDGSGPjIxw4pUbFeUMek9PDyfLyclJXrW7sLCAmZkZ3L59m8fayBhpbGyMxZc9PT3sd0/jRi0tLcjOzua+HwGviooKi9W++/fvt3DSooAgRkHeCDDQyldZiSkTyquvWnp8y2RpreKSxjHKXQ3WKi5lz0uiaKk9kFMPkgWg35fJUYIAuZyKPqsUbkqAsGbNGjg4OGDnzp3o6Ohgu2yNRsMC2urqah7hunLlCiIiItj4KCUlBampqcjKyrIYU6QKg/r2BoMBIyMjKC4uRk1NDa9cvn//Ph4+fIgXL16wzuTChQuceL29veHa7MqLoeh57927x+OM3d3dDGonJydZGf773/8e77//Pr788kv87W9/YyOn7u5ufPXVV2hra4PBYEBwcDACAwMRGBiI+Ph4TtSxsbH8c+nB39LSwgcJjScuW/btKCnd1q1bx39rOzs7iwNcJkFisVauXGkhjpVAVlZEFIPyu5ffP8W21BdY0wEsJhpUMghSmLiY94dSWLuYpkDqHSTQIHArQbF0D5UJX6lql9cIfX4JUJydnVmjRH+3rVu3wtXVFT09PYiMjERAQADUajXnmerqagaK1dXVrIdSq9XMLKSlpfEY+OHDh/kaOXjwIMLCwnDt2jWkpqbCbDajuLgYiYmJvOxJrVYjNjaWc3VVVRUD0IqKCjiPOsPPzw+7du1CbW0tJiYmkJ2dzTqAnJwcjk0yuiPDJh8fH75FRUWhqKgIXV1d/FoHDx7kw354eBh1dXUwm83o6Ojgs4HMnWjV9cLCAl97N2/eZKZFCnPJidjJycniu1jMIZSuETI6UjK48vGygJL3JUC2Bhxk7CiLORmbBFxfeeWV7wHC9wDhe4DwPUD4HiB8DxC+BwjfA4SXAAQKSqK+6EIke2W6cHfu3MkfnLZWrVq16h/aDbRNMSwszEKRSsGVnJyMmpoa9j3o7+9HY2MjH8gTExM89kKqatprQCtIKTFFRkbygU37IOzt7S0WRY2OjsJgMKCqqgq5ubnIyMhATk4OSktLkZaWBl9fX+zZswc7d+5k+n3VqlW8AMnd3Z3p/NDQUJ4e2L59O1PIU1NTbFn7+PFjnmggV8SZmRm88847uH37NsbHxzE0NISBgQELVy96LrPZzK2ViooKpneDg4P54nNycmIba2dnZw4KazvHKThkr5K+Y0rM1D+TVJmydy9bDDKorO1iUKq6FwtC2S9V0rt0sciDQXlIyItBCYYI5EgwJNsvW7duxaZNm7By5UqO59dee43d0sjGlQCoTqfj/uquXbsQHBzMwC06OhoqlQrXrl3jUTBXV1eOg5KSEkxPT+P27duYmpri+W/aDnf//n08evQIXV1d2Lt3L/bu3YujR4/yJM6KFSuwKuOb/n5ubi6vgS4sLOSW1/z8PAPkzz77DG+++SbefPNNjIyM4N/+7d/wu9/9DgDQ2tqK9957D3/84x/x9ddf8xrcU6dOwc3NDW5ubvDw8GBgGhgYaDE6TCCEzG7Ky8vh4+NjMeYoN70ScFX2UyWIXb16Nf+uHHmUwEFJl9J96XdBNKucD1ceyHI6RmmmJA99Gc+LaRCU4MKaOZi0c5YxTtcC3X74wx/yoaBsW8hpBQk06NqRrUWl2p3+NmQxTlt6ZZ6vq6tDTk4OH/70HRcUFHBxVV5ezuA3JiaGY7C4uJhp/gMHDvABHBAQwBbF5eXlPEqbm5uL1NRUXi5WXFyM6OhoREVFoauri1+vtrYWKxpW8Ph2eno6nxnUSk5JSbGYpqDXpmmFkydPYuPGjXB2dublegTWT5w4gfLyclRVVeHBgwfo7e1ls6SGhgYUFRUhIyMDubm56OnpYd8aMi8zm83crrCxseH43b59O4NjOkuo8LIGcCk+KRZl+0AJQK0d/kr3TYobqRtTAl8ZX/T/yrbyD+SD5NY/+jB0MFCwbdu2zarf+qpVq7B//37s3bsX27dvx4oV3zgxbt68mXtCKSkp7Bmv1WqRlpaGzMxMFBcXY3Jyktc5Nzc3o76+HnV1dWxcUVFRgfr6emYT5ubmOPE2NDTw7LaHhwfP4167ds3C6IYW69AiHtqiSP7jxcXF0Ol0vJdh5cqVDIYcHBwYbDQ2NrIgR642ffjwIb+/sbEx9jQgXURPTw+6u7thNptRW1sLg8HAmy2pp02Bm5+fz/oJErKRBwL9DS9dusT+CAEBAQxmyEKYGB7a4EiCF1lhUfAoxS6LoVFrGgQZeDK5KvtfyupKJmqZ8KzdlBeDfE7JfCgZBhLayp41feYVK1bgwIEDPKu8bNm3I2Genp7IysqCTqdDXl4eg9TS0lI2zNq/fz8CAwPh7++PU6dO4fz587z4iw5WLy8v7tPOzs7CZDKhtbUV8/Pz0Ol0KCkpQUVFBTo6OlBdXY3Kykr2yPD394e3tzfbk7u7u+NI6xEEBQVZGIhdvXqVBVEajYbBjNlstjAY+/nPf453330X9+7dw5dffonf/e53+Mtf/oLnz59zpRQYGMi+JS4uLgy83dzcGBhptVoWggUEBHAld/bsWY4rGrclvcHmzZtha2vLhxSBUGITqKKVVb88ECU4lGyCZM3koSiX1si4U1ZbskCS8SUPf+mDYA0UK9kE6YNAyZZeQwoNlcBi+fLlFsZL9DvKuCVWRcn8SSZFqdug392wYQMOHjyIHTt2wMbm242YS5cuhVar5aItJiaGixUq6mjhF7nL5uTkcPFXUVHBwsJ9+/Zx8abRaFjUaDAYUFdXh5KSEgtr8MrKSphMJqSlpSE1NRU3btzgPQs7d+7Estpvd3a4u7vj4sWLuHv3Lgtza2pqOAZ1Oh3/XK/XIzo6GqGhoTh27Bjc3d0ZzFOePXPmDAOEJ0+eYGpqCiMjI5yny8rKUFhYCL1ej56eHt5ITMxJbW0t+x0sW7bMAiCQHkcCWaUHi/T0UOZEpWaAwKQ1xmgxpkDelKBAvp6MWWKsfvjDH1oHCFJtqaQ4ZIVOJkqbNm1idoGWspDn/ZYtW9hpKjo6moUlUVFRiI2NhVqtRlJSEs+Wd3V1oaOjg12waBa1rq4OTU1NFjsXpJqckOypU6c4qSUmJvKBPTo6CqPRCIPBYAEQaEcCMROZmZk4f/48fH19ucLcunUr9u3bx/aaU1NTnCB7e3tZNT49Pc33+/r62DZ5cHCQP197ezsjalKDFxcXIy8vj6ksvV6PoqIifj0yIiGkTuiVDhBvb28EBQWxkpdWXRNAkOYdykrcWjUmKxrlIU23xUSKSoAgn0smRVkVKQGCMrDpsKDXkBeJfI+yIqJYphaDrGBl+4XYl82bN7NA19bWFkeOHIFWq0Vubi7Kysq4SpYJ8vDhw+ws5+3tjYCAAFy6dAl+fn58mAYGBnJyvXHjBrfVRkZG2FuDJguqq6thMBjg5eXFMXzmzBkGo76+vjjRfQIqlQqDg4NsYnT16lVe55uRkcEOnLW1tSzqnZ+fx/vvv4+33noLd+/exW9+8xv84Q9/wJ/+9Cf87Gc/Q11dHYqLixEQEMAAYc+ePcyEeHl5cVJMSkriKi0wMJABkKenJx/ecq34ypUreWENTTBQwqefKX0NZJtMCRDkwadsLdCNcpaS5l9MsCjjS9kO+x4gfA8Q/n8LEOQTSPtZ2cuT43Pr16+3cOmT6ky5LGjz5s3Ytm0b203u2rULJ06c4NGs119/HR4eHjh+/DgOHTqEmJgYVFRUYHh4mA/+8fFx3slAtrekZ6DeKjlvEcVEhjTe3t5ob2/HZ599hs8++8xiwVNZWRn37nNycqDVahEfH4+4uDhcu3YNERERUKlUTMdt2rTJYp0pAHzyySf45JNP8B//8R/MFJhMJr4Y6urquJJraWlBTU0Nj7hVVFSgqqqK14VqtVpoNBpkZWXxBVdbW8usiEql4guOXB/JKpcU7mFhYcwmSBqLqmqiv+RBuWTJEj5EZWUlE698LqkVWEzRLSlTZbtAmXitUa40oiYvACVAUB4kcgyTYpBobaKtCfQScKDkSkuEaAxv7dq1XP2qVCokJHwzVkj0up+fH/+dySXU3d0d586dY/vjtLQ07tHr9XqOx6tXr6Krq4tZI3JDJBBYVVWFhoYG/H/tvWlUVWeWPm6M8wDIcLlwgcskYRQJGFRUlFKcBxBRVEAGAZlEBAREUVEcQKOJQzTGqEl1VSUrqaTTv38l6XR1ujOsrJTpdCr5kO5Kz/lQ3Wv16nSv6tXVXd3r+X/Ib+885/XcpNIffpBVb9Z6Vq6XO5x7znv2ft69n713Xl6e5k250VJFRQU2vvClLmZ0dFSNbHl5uUb1zp49q999+PBhR3vkV155BS+//DJ+/OMfAwD+5V/+Bf/wD/+An//85xgcHERbWxvWr1+vXfBycnL02Kurq5VEV1VV6VTWkpISjdIlJCRox1UeCiTkVGa7hIeHayqAQ6nh4eG6Tnj+Al9j1sSwoxcnJ4RRrrP8bfLkrxoV8ZpyW5f82fx8oEZJpsPn4zIjZ+b9YBIW87e5lbOZhJrTaW6pQY6uTJ48WccoS+hbGvKUlpbqhM61a9dq1LKiokI3JZIW6OzsxKlTp1Sb0NPTo7n4zMxMXZvSofPEiRPo6urCwMAADh06hM7OTvT29mqzpaGhIVRWVmLXrl04cOCA2rWoqChMPztd7+F58+ahoKAA7e3tehxXr17V6aJXr17VVPCdO3cwNDSEzs5ObWK2YcMGlJaW6kY1Ly8PR48exeDgIG7evInvf//7uHv3rk6W/P73v4/nnnsOZ86c0cm6g4ODWukzMjKi9x6nGFJSUu7r1Cq+VK6teY14zZibIyYKTBiZBMr7Z82aFXAzxeva3Ly5RdOUILDgUJy8KYSQm1AIQnh4uCM3KAt+9uzZKmYMCwvT8GdMTIwu5ujoaHg8Hvh8PmRkZODkyZO4cuWKTi989dVX8cYbb+DHP/6xGqDXXntNQ6YXL1505PhlF1NYWKgRi7ffflvH3d6+fRtnz57F6dOn0d7ejkOHDuHIkSMYGRnRet4jR46gs7MTjY2NaGhoQG5uLpKSkpCUlIRr167hN7/5DX7zm9/gjTfe0OhAZ2enplm2b9/ucPCykxM2OjIygsuXL6O9vR2NjY1aqiPpliNHjmhaQVqWrlixArm5ueqUuI0018vn5uaqYeeZBCwck+vMuV1eYObrZEfN5Y/yPBtLXtRsUE0E2rGxQWTWzAaTbwYzTMxteE3iwOdB/s1ENiEhAUlJSUhNTUVYWBh8Ph8SEhIQFhaGXbt2oaGhQYWw7e3tOithx44dGBgYwMqVK7F69WrU1tbiypUrOiVUCN3ly5c1JfTxxx/j6aef1jHQly9fRnNzMx555BEkJCRg1apVKCkpQXZ2tooUpfPbypUr0dDQgPL/U45z587h6NGjusPj7na5ublqsKKiojQCcOnSJbz22mv4sz/7M8h///Ef/4F/+7d/w71799Db24u9e/eis7NTifDSpUtV/FVTU6NRA9mVlZaWYnR0VFuCy6ZBRKG8O2LBIpfYyuRH0SrwzoojAm47pUCRLiG1buuI3+/mmN0iCEyKmRSw0w/k5APpbsRg8+ebx2SSdrfnJVUmKTS372KnMm3aNNWRSVdFKT1NTExEV1cXzpw5g6amJt2Vd3d3aznvqVOndDN29OhRx0RFKe2dN2+ektquri60tbXpXBtZP9IvZMeOHSgvL9fo1dq1a7FlyxbdlYeEhCDqehRyc3N1xoysa7nHWlpaNEr25ptvao+CO3fu4LHHHlOtwfLly7F69Wps2rRJj3X79u2qtTh9+jQGBgZw5swZPPPMM7h16xZefPFFvPrqqzh58iSefvppPPPMM44IxNmzZx0CQvEF0v+AozRmZEd0MzNnzoTH47lvjcuGh58XXQELfCUayrbym9Jo8jq5dzga5tAgWIJgCYIlCJYgWIJgCYIlCJYg3EcQzNCVGf5ggy1CMLmh4+Li1Dib5WOiaYiOjtawY1JSkoZgRODo8/ng8/kQHx+PyspK3LhxA3/0R3+En/70p/jjP/5jvP7666rQvn37to6Wffvttx1jZqV8cs2aNSoa/JM/+RN9zblz5zTML068r68PjY2NOHPmDHp7e7F//36UlpaqePEHP/iBGtPnnnsO/J80wVizZo3mbJuamhx5WhE19vf349ixYzh+/LiWu7W2tmLnzp3YvXs3qqurtdxHtA0yWESGi4hyePHixZqTzsvLU41EUlKSpnIiIyP1eknTK7mWIlqUZjZcFeAmCDSdP4sU3fKxprqb87/mYBtWzcp3TZw40WHMONTKBpLz1ibJ4RSHPDarMThPHh4eDr/fj6CgIO3wFxUVhWXLlmHlypW4deuWhu17e3s1jdTf34+dO3eioqJCq3Vk0icLWmU9/vKXv8T777+Pd955By+99BKuXbuGmpoaxMTEICQkBJGRkYiOjobX61Xil5KSolUMPT09yH0sF6Wlpejt7dW1lpub65iqymk/WacdHR348z//c/z1X/81zP9u3bqF5uZmVFVVORowrVy5UsPGDQ0NujbXr1+v6a9bt25peZvX61UHL9Uw8u+wsDAVi7LD57Jb7gDKZFSqUERoK+uL019uYX0zhG8aTjcHznl+My1gljmaRMBNX8BNwkyy7EaO+dyY6Tq2w2blwwMPPHAfQWDHIudv2rQvp556vV4kJSVp2Fu0Ort370Z7ezuuXLmijvPGjRs6IXFkZETD+T09PZqG2LNnjxLhNWvW6OC+iooKtLS0oKmpCRUVFWrPZPBTcXExVq9ejfLycm3q1djYqHqqsLAw+J70IT8/H8HBwUokhaAPDAygqqpKy8t///d/X9PTN2/e1A3g+vXrUVRUhJKSEtTU1ChBqK+vV+1XY2MjSktLUVNTg6GhITzxxBO4evUqrly5oiWNTz75JKqrq9XflJWVOaqm5H5LTEx0EFauYjBJraSCZd2blVumPsytgos3UCYhdtugsRaMNQ6ydjTFwP9grQHnoHmh8QAnKR1JTk5GZGSk3uiRkZFKCjwej76eczFijDnPHxkZCY/Hgz179uDkyZO4dOkSLl68iOeffx7PP/883nvvPdUdvPfee9o97sMPP9R8/+HDh7Wl8uuvv4733nsP7733nlYQSAkNjyltbW1FV1cX+vr6sG3bNixduhSLFy9GdHS0lu7U1tbi17/+NX79618DgOa/tm3bprssGcnb1dWluoba2lp0dnaq0FDmmjc2NmL37t3YvHkzSkpKUFpaiq1btzpqeOX9mzZtUuNcXV2tjiEzM1PPs+Tbg4ODERkZeZ8znT17tu7QJJcrM+EjIiJUjCqslfNZbouTWy3zbor7ILhpE9jwsrDRLYLAOTTeEZk7MWbFEiWYOnWqElFxJPJ9MkFNfos409DQUEcVjxikTZs2aTSovr5eRbOiH2lsbER1dTUuXryIxx9/HDdu3FBRY19fnwpUP/roIyW2zz33HEpKSpCfnw+Px6OVMtHR0YiLi0NWVhaysrJQV1enxG/x4sUIOxgGv9+PdevWYdGiRVi0aBHi4uJUODxt2jQtwY2MjNR7r7y8XKsa/vM//xMA8Hd/93d4//330d3djdbWVp2yKoK05uZmh0BN7pmysjLcvXsXd+/exf79+zWiKGsxIiJCy0YjIiIQHR2t68osYeT2yxy5MgmhW/mebGTE6JqElg2x/N2sUHDb7TOB4DUcSINgOn4mxXJPmL1AmESwfZX1bYrTpk79SuDI96QpSONzwL9fzvGUKVMQGhoKr9eL1NRUx6Zh1qxZWLBgAQoLC/HCCy8oQZC249J6XHoASBVae3u7o2/Cjh07VDSbl5eHkpISbNmyBRs3bsTq1auxbt06bfG9fv16jVDV1tairq4Oe/fuVZKanZ2NmCdjsHDhQqSlpSEuLg4+n087kA4NDaG+vl6jyTdu3NBeMlKuuXv3biUlu3btwvbt27VKqKenR3splJWVYfv27dixYwd2796N5557DidPnkR7e7uKiy9duoTu7m7VXiQlJTnOrUQQOIorNkZKeXkjxmJyvqbi3OW1QgKZHJpEMRDxNdcn3yP8WtOWW4JgCYIlCJYgWIJgCYIlCJYguBMEt3Auh2QlZ2Ia04iICISHhzvywuLkxelImFFeHxQUpKEnMRyRkZGac5Rwb1lZmTYxevLJJ5UU3L17V4cy/fCHP8Tbb7+Nt99+Gz//+c/x1FNP4amnnsIPf/hDVW7/6Z/+qTbTuH79uuZKpce+9NA/efIkqqursXbtWs0/h4aGYtmyZbqQRDk+OjqK4eFhDW9t2rRJHTmPeJZZ4qLYldfIyFIxyJs3b8aWLVscPcRXrlyJoqIiJQWlpaVKHKTWvqioCLm5uRq64vCjpHaio6Pv0yCwsRTVs1mDzguXF6Goo2fMmBFw3LNZ9igGlvOtZq6W38/GTNai5MQC5Wb5t7HBZJIr50W0ClOmTNFKB7lxhayKPkZ+v5Q95uTkoKOjQw3T0NAQzpw5g1OnTqGnpwdDQ0M4e/Ysrly5oroZaQLT19eH1157DU8++SQuX76Mvr4+bNy4EQUFBUhOTkZsbKwS68jISE0ZBAUF6ePQ0FDMbJ6pTlVy+pKW8Hq9WmYcExODJUuW6HraunUrhoaG8KMf/QgA8Ld/+7f45JNPcO/ePbz66qvYsWMHioqKUFVVpbqFU6dOKfHmUtuKigpdg9HR0UpMExISHPe32Agmol6vFzExMTrQRjYLomPiULiAu4GaGhUO07It4kodXkfsdM20qumUxaB+U5mjG1E2STGTEk538OdJuNfN6E+f/lVzJF7znDrjzRznmM37RHQLMTExSE5Ohsfj0XvA6/XC5/Ohq6tLOww2NDRozr2jo0NLEA8ePKgN3Hbu3Knphurqal13CQkJKCgowJIlS7BmzRo88sgj+N73vodt27Zh165dOtCvqakJAwMDOHr0KA4cOKApgJiYGNUgrFy5EkuWLMHixYsxPDys9nhgYECJSm1trT7esmULKioqUF1djQMHDqC9vV0rcMQenz9/Xhv17d+/H7t27UJZWRmKi4tx8uRJtLa2oqqqSivUZDS0/G4p95eNl5B5Se1KKoB1XHJdOIUkpNnUG3Aa1twomWtX1r9JSuW9biPO+f7g9JqueT4otxze5MlficBEayCQQSyxsbEOsiB5LXksxiI+Pl53G7GxsUhISFAkJiZqudmaNWtQX1+P9vZ2HDhwwFH2KO2L3377bW19fO/ePe2PwK2ZZQLkM888g+vXr2vJ5OXLl/Hkk0/i8ccfx9DQEMrLy5GZmYmwsDBHxGPevHnIzMxEZmYm/H6/Cha9Xq8uhKSkJNVR1NfX6+TKq1ev6i6yra0Ng4OD6OvrQ319PSorK1FeXo5NmzZh8eLFWLZsGZYvX643gQjfJHqxYMEC/T7eqXm9XjWoXOLH10k0I1LKyKV8nP9lQyMGSRa3W57WFCnygmRjabajdRNvmcw2UMSB1ykfK+cAzXwuOxpxInye5DmJFnC/CHFMc+bM0XWelZWludiLFy/i9OnTOHHiBGpqarR1stRhX79+Hc8995xDs3Do0CG0tLSgoKAAOTk5KCgowNq1a5GXl4eEhAT4fD4kJyerw+cy4bCwMMxqmaVdCqXjYUZGhpKC0NBQvcbz5s3TcjOZCrphwwbcvHkTTz/9NF555RW89dZbqKmpQV5eHtLT03XaaGRkJKKiolQ0e+jQIZ2el5KSol03ZcqrOH6JZIjDEYGinF/ZWcm5ZZLKuyhez7w2uQ04X1teNyL66PH1AAAgAElEQVTsMo2wm4GV9Wk6Zbe8rTnB1Ox9wLXkJvE1P4vvB7nPZGPmFllgMsP3i+lU3O4RBpNlr9eL9PR0xMfHIyoqSs95cHAwUlNTNRq6d+9eXUfDw8MaWZCJpOKYOa8vGyv5/MTEROTk5GhkLCsrSzdPshmUfiMnTpxQjUtBQQHCHw9Hamoqli9frmLtxsZG3cXLe06cOIGKigrtH7Nx40b09PSobkgiZdwq/OLFi3j22Wdx9+5d7WTb3NysQsbe3l6MjIzg2rVrGB0dxcjICE6cOKG2mQW4orMTbYc8z+WnHEHgdcCbN7F1vG752vM6ZTvoJsQ1I2u8bsx16GabJzAzcfvQyZMn39e2VxAZGRkwpGIqyMPCvgyNCkHgXtVCEnw+HzweD1atWoXa2lq0tLSgo6PDManRjSD87Gc/czRQkjrYl156SQnCtWvXdKT0Y489huvXr+PSpUsYHBxESUkJ0tPTNfQmDpgJQlxcnIbNoqKitDIjMTFRd+tVVVXqDM6fP69Mu7GxEX19feju7kZdXR0qKyuxfft2bN68GQUFBSgsLMTy5cuRl5engrTi4mINIT/88MOayuEwLhMEXoR8nWRRCkEQkY/sntkIuxkXUw3NBCEQKTAJAqcd3KIGbPDMVMJvQxA4NfZ1BIFJE69nTs8I5HkRMwpByMzMVBIoVQvnzp1Dc3Ozjgy/deuWNjH60Y9+pMarv78fPT09ShByc3OxZMkS7QuSkJCAmJgYJCUl6ZqSKaoPPfTQl6H71tkanVuwYAEWLFiA9PR0Janh4eHqvDMzM1XpPW/ePKSkpOjo8yeffBIvvPAC/vAP/1CFjmlpaXoPCGRXePDgQW2Qk5yc7CAIAp/Pp+/j9rIiLpR6eyYIXD3FBMEUdnF0jAmC285KPsckCLxzMwmCuaNiw/ltCcLXrXG318rvEGL+/4ogREZGIi0tTQkCn/OUlBTtE8ME4dSpU5pKYILA1T21tbVKEDIzM7VSaP78+WpPs7Ky0NXVpQShv79foxSDg4NKEJYuXYqIyxFIT0/HsmXLsGTJEhQUFGDv3r06q+bIkSMa0eMU2ebNm9HT04O+vj4cP35c5+bU1dWp+Faalt2+fRunTp3SBnUlJSVKEM6dO4erV6/i/PnzGBkZwbFjx1SYLsQ3JCQEERER6iNEtC+pTNnAcFXCb0MQTMfO69m0iW5VDOZjN/Hi1xIE/gBZbKyAlefkhubFNmvWLEdVgpQ+CtOXMZec+xVSEBoaqk5OQqyJiYlITU2F1+vV8H5jY6NWMbz44ouOKoZ3330X7777Lt577z0tc/npT3+qxOHjjz/Gyy+/jJdffllHi3Z1dekilG6EMvY3JCQE+fn5yM3NRW5uroPxcrQkMzNTDWFUVJQ6bD4fXObl8/mQkpKC+fPno6qqSsO1LS0t2LJli3bfW7VqlaMPvhAnOb+SSpDvlhSCpBH4OjKR47IvCYUJIfB4PFppYobqhWXy4pTnTYJgkgjeRcmiZbJgRgr4+9yOwzSEHKmS57gREv+bhzHJGOLIyEiHEzMJQkJCgirr09LSNHSekZGhhvPv//7vHdUAb775Jj788EP84z/+o67BZ599VsP0p06dQltbG+rr61FYWIjy8nJ873vfQ2ZmJjweD9LS0jB//nxERUVpyaqEaIVQJA8lY9GiRSgsLNS0U0pKiq7BBQsWOAi3VLykp6cjLCwMcXFxWLhwIRoaGrBt2zasXbtWdz1JSUnaLj0tLU3JvMfjwdKlS5WkiqOXVuoy/l0iBbKrEkMm609IrDiiOXPm4MEHH3RcJ45CyneYcxkEwcHBrmFYIYeyxtiAmkaSw6/yPDtjJqg8oMx0/iZJcYsaTJkyxZGOkO80NRJsf920YHwvyD0tjocjf2J/THLMhCwlJQUPPfQQUlNTMWnSV4OxwsLCtIpKOs6K7ZTIqHQaPHLkCLq6upRArl27Fps3b9b0qdjS1NRUxMXFITk5GVlZWSgvL0d7e7tG1nbt2oWdO3eisrJSiUdNTQ3SfpiG0tJSnZWTmJiI9evXK/GWAUxXrlzRirFjx45h//79mlYeHh7Gnj17VOsgZcSPP/646oseffRRbWR25swZVFRUOObiXLlyBVevXkVbW5ueP5njIm35uWmSm+0y00Bflx4V+8l6HJ6tYNpcJsu8wXPb7Imf4NSvvJbX/QS+8TgUKz0PzPwdv05y9aI1EMYk/dUlhChOjGuh4+LiVMTo8/kwa9Ys7Ykwe/ZsLFmyRKfIyaS6V155RYnA7du31fmPjo7inXfewTvvvIN79+7h008/xaeffopPPvkEH330ET766CNcuXIFBw4c0DxTUlKS5nVnzJihIbA1a9ZomD8pKUkdAztpTkOEhYVpWFXIgOykeHgVh20lxzx37lwUFRUpK87JyVECxXlYNrzSx16MMEdtzKiBhLOYvQrRk+vj8XgQFRXlCH2ZvRLMFNTkyZPv2025RQPYyLo9z2vLZLImE+ZFa95wcsMIgZX+DZxWMEmu/B5J2ZgiWvOci6OU6+/xeHDx4kXcunULP/jBD/BP//RP+K//+i/85V/+pZZY3bx5EytWrNAdTX19PRYuXIgFCxYgNTUVmzdvRm5uruO7hJzIGszKytJI0sqVKzHv/Jc15hs3blQjN3/+fMd8FO5TImRSCKAZ0UtPT4fX69X3iLNITU1FaGioOv+5c+feR6IE8h2SuhJ9gfRikF4HoiHg3gh8jcyOcxwpYCfIBo/XARNkc32Za9h0xKxxMQmAmwbBjDpwWaMQYTNdwcfIYIIgREd+g1vpGt+TvGkzowhu98vkyZN14ybpMyG+HDWbNm2aXsvq6moV/vX392sETTQ3Z8+eRWNjo6YYVq5cqY9LS0u12+iKFSuQkJCAuXPnIiMjQ/t+bN++XVMZAkkTnDp1Cjkv56Curs4xUbihoUHJyejoqGrNZOjf6OgonnrqKVy9ehUXL17EsWPHtFOjlCWXlZXpYCbBtWvXcOPGDdy5c0eJUU9PD+7evauDyaQsWVK7gsjISL1fePCYW3RHrrOU9srz7KQZnHpjES8TVDfiwREH874wbbPcD0xgJ7BjMXO1ZjTB3NXxzosfi1JZwDsMDkdKRYTkLGNiYpCVlYWIiC9DSjk5Odi9e7dqCl566SUlBZcvX9ZFOzo6qtUKH3zwAT777DN89tln+Oijj7TV8vHjxzXsVVRUBL/fj5iYGERERCAmJgYPP/wwli9fjpKSEg1lxcfHa9SAyU14eLgjciK/iR+L8Ed2R2KAxZD7fD7ExsZi4cKFqkEoKChwGHquIReWKsNveMYALxoOZ5kDbaT5jBAEUZp7PB7dabjh2xAEU5BlKsUDkQQ3chEoVMYGkn+3sGshRbyWGdyOVpyaaGi4QZQYAZ4rwGu4trYWjY2N2L9/P55//nm8+eabOrZbGshkZWXpzqq4uFjTBampqVi2bJnm/cWJBgcHIzk5WZt9paam6rCmJUuWIPV0qjZ8EU1AWlqaY53K/RYeHq6EVdaQ7NzDw8OVpIooMyIiAn6/X0kq51djYmIc+hVuaCT3gnnO5D7hJkji/Hl3y+uWSQELE1ljEmidchqBc7hMCMz1xbsxXqu8ptVY0ppnMa7ba920CNOmTXPcCyYR5n+7pdLc0gpmlZkbeTLJgxAEuQ6xsbFIS0tTEicRG7neJSUlamu7u7tVg3P06FHdrTc2Nmp1lTh+CdNLCrWoqAjz5s1DTk4OFixYoK3Ey8vLdShdS0sL9u7d69C+5L6Si8bGRtWpRUVF4cCBA1pJJv1Hzp07h4sXL+po9lu3buGxxx7D6OioTovcvn07SktLlSBwu+hz585plOCJJ57AsWPHVCfx9NNPo7e3FwcPHoTH41FfxwJaIclz5szRey0oKMixzsymXxzNZSdtkk95LBt3t3SZW+rBTN+6VZGxvTbTYBNkQbChlV0oN9EJlNsye+BLrlGMNztHGWKRkJDgyFNKuDcuLg45OTlITk7W1ERFRQUuXLiACxcu4Pnnn9eKhhMnTugu6/z58/jggw/wwQcf4MMPP8Tnn3+Ozz//HPfu3VPs2bNHjy8qKkodcUxMDBYvXqylhHv27MGCBQuQnZ2txtXn8zmcP5d6Tps2TX8fk4iIiAiHPkAcsWgvoqKiMGfOHKSmpmLFihVYt24dNmzY4Airci6YnZs8ZlEdO0DeVbCDlNwsixdl7oAZEuOKBjeYim5muoEaJgUiCMyEzRvIjQhwHo93l7LTkhuRc90SbZk+fbojaiDnRYaqcPpMzg1HV5jkCQkMCwvDypUrsWfPHrS3t2N4eFj1AUFBQQ79iByLhEtFvxMbG6vOVMixRJQk/J+dnQ3/UT9ycnJ0emRxcbE2ykpKSnKsQ4/HozlRSa3IoCRpyhQbG6vaIDknnDLj+5q1L6zcZhsgjl/CrKxDkkiJudb4nAskJTlnzhw1pNItjtd5oOoGnubIlQNsfNnxmlEwt/ysWdrL0QS317sRZL5fOAVn3iscLjYFaWYqgXeITKR4k8AOSQiCXIfo6GikpqZq1Yw4LTn/BQUFGilob29XhyqTTg8ePIh9+/ZpGezatWsd3T83btyIDRs2aFfQVatWaYO5DRs26ITQrq4udHd3o7GxUQl2TU0NFv5kITo6OjBv3jx1zidPntR5CKJjOHDgAAYGBjSld/v2bZw/fx6nTp1Ce3s7du3ahZKSEscwtX379ukQvaGhIVy+fBmXLl3CyMgIbty4gSNHjqC1tRU3b95EU1MTampqHJvhmTNnqp2Xqcbc9Mgkd3zPmASBryWvUzOqyrbSzQZzWiGQnTXfx+uaXzeBIwecRhCmKYaVVcecD5H3Sp6X2ZTsWuRkSi4+JSVFw5oidJQwfVRUFAoLC+Hz+RASEoLOzk4tW/yDP/gDLb3ZsGGDdnB75pln8NZbb+Gtt97CZ599pimGX/7yl/jVr36FX/3qV6itrXUIq/Lz87F8+XKUl5ejo6NDRypv2bIF+fn5yMvLc7SO5RuGxZmcp+WSTkZQUBASExPh9/sRHh6uoSipJJAFFx4e7qjskPMhKRz5fI5esAPlyA4bZyYSnGKYOnWqKsu5/I9DWhyqZOdv5mPdOsy5qXHdGCvn2MwwrLzPdCpuO0JZh3wTsv5CfjfnY+X1s2bN0h34jBkzHNeVz6VEuwTSuyAqKkrD+qYORYilONeoqCjExcWpkxPjImKuqKgo1aLEx8erICovLw+JxxPxyCOPICkpCfn5+cjPz3estfj4eKSnpyM9PV3HUW/cuBGVlZV6fLKjZ7Ipka6QkBCNIDDxSE9P19/B97q0vpXzIq+X8i+JEnA0TdahXANOKwg4xcbX3gzZu4XXZU3J30Q4K90G3Zy3ubt3M6pmisHcgbGuQO4hft4US5q7Q3mP+Rpe33IO+Hez1oPPgds97JYbl06iWVlZWqYuZadTp345xK+6uhrV1dUYHh5WkaIMXxoYGHC0H+7u7lZ9TE1NDTo6OtDW1qYl21u3bkV5eTkKCwuxceNGlJWVoaWlRYWKEplrbGzEli1bsOjVRejs7MTixYs18jw6Oorm5mY0NzejsrJSo8Otra3ap2RkZAQ9PT3aPr+iogKbN29GcXGxTp7ctGmTQ1MhkYSjR4/i8uXLGB4extGjR9HR0aHrmu3B1KlT1a/4/X7HWuYxBHK+eV2LIzcjBmaUiEkCX3tznZgRNFkbvD55zQYiDiygneD2gXLgHO5jgysfJIZViIMY2+nTp6voTxT0kp8XxxoVFaViMdmpiRAwOztbG8eUlpZqfunatWsaTViyZIkukJdffllbbf7iF7/Axx9/jI8//hj//M//rFUPCxYs0NB+RkYGNmzYgK1bt2Lv3r1oampCWVkZ1q5dq6pwEWkJKRCCIyRHjGh6errmbP1+v6P/APeelx2alBxKlEEMJithZbKgLDw25Kz7MOvD5TxzSkKMs3yPmVLi2Ru8K3fboTDT/G1aLX9d2JYXZSBDyGuTIwuTJn3Vj9yMejApkHUpBIPDfuK8+LFEBSQdxqFYPv8sopNokpBFiQLw5/I1zcrKQkZGBubOnaspLCEMQjYSEhKUSCcmJmo77bS0NIR1fik0lGhUTEwM/H6/ihG5R31hYaFGMlatWqWER0iKkBZuke7xePS7/X6/o5W3REJknLukE4UgyHmIiYnR/gdCOsQOSPkjp3lYdMjRLl6n/Ni0VWyzTMPp5pTZKAYKucpjNqomQeB0g1sVgxhnJgiBIgtuoWUzNRIo7eeWSgikvWBRr9xTsvHIyMhQ/RSTjdmzZysZbWlpUYfa3NzsGE8vVVv9/f2abmhvb0dvby+6urqwY8cObNu2DRUVFaiqqsK6deu0jXx1dTVOnDiBkydPar+NpqYmbN++Hfk/ycf+/fuxfPlypKSkIC4uTr+/ubkZdXV1ShD27dun6ZCRkRHU1tZqykJaLG/ZskWjDzKLQdrgS4+c8+fPY3h4GEeOHNEGepJG5jU7bdo03dBFR0erPWayy+eSo/V8zdw2RZxGcLOPgdJoZgSB1zKTWLe08H0EgZkrsxX58ZzrMgkCi6skZyWPxelwp7SYmBjdhXCYVoyI1+tFfHy89hdISkpCYWGhXnBujpGbm6uhrtdffx0vvPACXnjhBfziF79QYeIXX3yh4pPo6GgtqVy4cKE20Ghvb0d9fT1Wr16NRx55xPHdphhRFkJ2dra+RmYiSB05N7VhIRcbYdnper1eR39x+Tu/xgzJCjkQcSWzVA4tC+HgaycEgQ0ENwoyHa0YE15sgQgCL8JAoVpzIIib7kB2hub64+MWcsrhUNkFu0VSpk519vwX8moSBnF0ogFhA8k7Wy7zlaiEhOl55oD8TQhCcHCwjjhPT0/HvHnz8NBDD2neX6JqYgRF8S3XOCkpSRsl8XekpKRg3bp1WLduHXbv3q052A0bNih5lY6NXq9XhV4yu4HTYdHR0RqZk4E+khaTip65c+c61qHcy0I8JH0m51eItmwo+L7gNBiPiGYjy5sVvt6mUWUSYYZb5TvYAPPaMx/LemYxIo84l4iZwGyUZIaDhQi7pS/4+M0ohltql518IOLA4OdlMyF2QZ6T1FZsbCx8Pt9975EN0a5du5Qg7N27VwnCsWPHHEOcpDxWhuL19vY6hn3V1dVpNKGsrAwVFRUYHh7GuXPntItnc3Mzdu/ejfz/Lx/t7e0q2k1JSdF+Bc3NzWhsbMSGDRuwYcMGNDU1aTpkZGQE5eXlqKysRFdXl3Y83b59u5ZRVlZWajWEzOs5d+4crl27pp1Qe3p6UFxcrOvV1DS5zSIRWyQbFbZjbN/M9crXnAmCm/M3ybBbSpaJA9tgtuUmQeC1OYGFWRISNsN+Zs7XPEFmPpCFSh6Px1Gux42SZJcsHde4NfPcuXO1hlaEXXl5ecpM58+fr+LFTz75RHsffPrpp1p29vrrr2vd7erVq7FixQosX74c+fn5qKqqQlNTE44fP45PP/0UbW1tmDdvHoqKipCcnKwRDOl3EB4ejsLCQhQWFmqqIDw83FHmGBERoefD5/M5xIHsMJg0SJmMOHshI5MnOxtUyfPh4eGO1rbyHZKuMKMJbjtpMSxmBIjDZmxsmSy4GUszRGU2RzIjB26iLP4sNyMXyAGYRpSNn0RfJLQnv1VuGLlevJOSdcvESpoAiVDP1KKEh4fr35gICuS92dnZqsTmNEBWVhZOnjyJe/fu4fPPP0dTU5MjtC9rMD4+HjGHvxTyRkdH605/7dq1uuY//fRTvPHGG3jjjTcwOjqqOoWMjAxH6XFCQgLi4uJU+yAQ0i73oazzuLg4/b6cnBxHNCI7O1tJs9zrvJOSfLhEscS+TJ8+3UEK+Hpzv47g4GAlI1OmfDW90Mytc0qB06FiBN126Lwr45yv22NzWJNbusE0tmZpr9tuzjTyJqHh9JuAyx+ZELOeQz6fnY3YCSFa3ENEWiMvWrTIIXZm+xUZGalDlQ4fPuzo8SG6gVOnTimJkKF4Bw8exJYtW1QcWFZWhtraWq0qWLp0KTo6OrSUUkoPu7u7VYNQVVWFzZs3Y926dTpBsqWlBSdOnNCIw6FDh9QvdHd3a1+GEydOaCXRrl27dLBUZ2cnRkZGcO7cOW0jfeHCBVy7dg3Hjx9HQ0MDtm/fDq/Xq3aCfd2MGTN0/YsmTSKzgewY2y0zamCmhdz0BebnmdGnQBoat8/h+4OjYUoQOAzCBpoN+OzZsx0/ygwLym6Gw9ri+Dlfz+Nc09LSNIQq4deoqCgkJCRosxYJd8muRKoLlixZgj179ujuqLW1Vetdb968qZGF/Px8FaPs3r0bZWVlKCkpQWxsLI4ePYqhoSFcuHAB//3f/413330Xv/d7v4fVq1cjOTnZ0dRJjKWw6IKCAm2DLG2SS0pKUFhYqOKyhx56SH+rdIiU0L+kWuLi4hAZGanGTfQJolHgckYxkPy83LCSF2anxAZa0hKS/xLDwNEB3k2bAht2urIgzdG3gYyi227JzbG7GWReg+bNw0IdZtOcp+ObQcL+s2fP1puDO/jNnDnTEX4XMaQ4eNklc3MgOf8SBZNGRZJbF4GivFdquMU5L1q0CHl5ecjKysLg4CD+6q/+Cv/zP/+Df//3f9deBNI90+PxwO/3aydFr9er6YOGhga89NJLeOmll/D000+rojsvL08/R9ImQthjY2NVHyMlueJYhJBwl0RJhUhqUNJtonEJCQmB3+9Xp246GL52sj45DCs2SGzIzJkz9RqbvS7YYboRBE5FuIXs3VIJZprMLbJgEoRARNhspuSWbuP7w4ygsV7HDCsH+l3m+WDnwfcth6blc2UTGBERgZycHCxcuFBFqhLxEXvP0aaSkhKd7Dg4OKhO99ChQ+rgpf9AZWUl1q1bh4KCAixfvhzFxcVoamrSSIPoEsrLy3HgwAEHwZAqhqqqKlRUVGDHjh3acKylpQUDAwPo7+9Hf38/Hn30Ub0XZPZNX1+fRieOHj2Kzs5O1SkMDg7qbxgZGcHZs2dx+vRpDA0N4fjx49i9ezdWr17t0EkxQkND9b4QLYucY7HTZgqf1+LXPRb7bEYQzOtrphgefPCrfjVm1MAN5j3AxGQC36j/G4Igi4VL56ZNm3Zf73WTIEjuPikpyUEQEhMTlSCYYcvCwkJtIFNfX68Ou6GhQZns9evXNcSUnZ2t9bhVVVUoLy9HaWkpYmJicPz4cW2OAQD37t3Diy++iDVr1gQkCBL2Xbp0qeawysrKdGEXFRVpuiE1NVUXiOSnJS8bExOj6nEmCDy4itMEHM41CYK83qxNZ5YrwjmpO5eID0eFOLLBVRDsyNlQByIIvDty0x2YDFa+QxZ3IIJghk/lM3k3xUbVJAi89jh1wCJFcYiiwJdzEhsb69CWMEGQayXXVaISci5TUlIcBEFIQlxcHAoKChwE4W/+5m80EiARBm6C5Pf7MbN5pt4fkhduamrSgWY3b95U4yftlVNTU5UkRkZGag8QqWiQNrtCEFhILPceEwQm/UyG/H7/N3aPY4LAtkceM0l1Iwhsi5gU8Jrl9JSpPeBd/G9LEJgUuxEEtxwudw910zoEIs0mQZDvNsXkvw1B4Pv2mwiC6BCEIHCZtoi0hSDI85s3b9a1duzYMQdBEKd7+vRpVFdXY/fu3Vi3bh0WL16MwsJCFBcXY9++fWhubkZLS4uW7G7bts1BEIaGhhwEQcarS8tyIQiCS5cuaSm8RBQOHz6M06dPY3R0VFMh4iOOHTumxzo6OoqzZ89ieHgYJ06cUIJQXFx8X9RSIGTd6/XeRxDkXuC0gBk1+LrHQnYl+iTXLRBBYNsoNtHUwHwdSWA7rQTBLeQwadIkR/MSs2kJh7eYRJgKTglNcWtfOZkhISG6Q5Iwp6QZZNcdHx/vuAB+v1+N1JIlS3Q+w+nTp1Wn8Mknn2gzpYSEBDWQERERSE1NxUMPPaQGPysrC9u3b8df/MVf4IsvvlDj3NDQgJKSEmRkZKgwS7or5ubmar7J6/Wq8jwpKUnJQV5enk4fkxp1MXysNZDzI6kXDuNK2kWMuDgcLh/jLnYscBQjLKFcEc6JQeUFxdUpbnktMyylCydAuFVCVmZVw5QpUxz5WnOBMllxy6fycXDag4+Xd5CmAE4cFodLRYXPQ5tkvUnDL1F1y5oXgaBUrUjUJzc311GWKg5ecro+nw+ZmZnIyMhAamoqYmJisHLlSuTn5yM1NRVHjx7FT37yE/zsZz/D5cuX8f777+P999/H9evX1fCWlJQgazQLa9aswerVq3X39eabb+raffbZZ7XczO/3a0RLIgfR0dEqnBTyLik/aQgm6yguLs7hJGRN8boLCwvT3+r3+/V6yRAnU3cg2g+J3phr0K1duBmpNNcME03exHAkgY2jrFUmmkwE+DWmSNGtWseNXLgR50C5XtNhMzmX15iE1xQ4uonTZO2b9w6XOQqpkPRDfHw8kpOTtV2wmT6We0YiouLUefaMDKk7dOgQent70dDQgL1796KmpgZbt25FZWUlWltbceTIEXXsMiSprKwMNTU1jhbfy/5omVZKlJWVYePGjTh27Ji2S5ZIhTj5O3fu4M6dO+jo6MC5c+cwMjKCCxcu4MqVK9oISVriV1ZWKlm4cOGCQ79w/PhxrFq1SruqukVSOZXMzp9tsFmlZW56xK66ETchvnz9eN1wpOCbNlnmRiyQUJEjwBP4g4QkyI0li4Nbc5qGl3MxHJKS/3MHQglx8jwGUWHLrt2sAhDHLs5dhFKnT59Wo/iv//qv+OKLL/DFF1/gzp07qlkIDg7W98r3+P1+HTazdOlS3Lp1y9Eu9/bt26pcTUpK0kWRnp6uxz137lztbpeTk6Ofy1P1eBcvuV3puyBhWnmdVHFwCWNubq5O1ZMdoDgqYaZsRGXnK7XtfBPzAB82qnzNGbxbCRQBCDTN0TIvPI0AABY2SURBVHwdL1AuAWPjxzlcNvwcUmMWPXHiRD23EkUwxW1MZvnvvBsVjYxEViSKxTthjo5J7wi53hI98Hq9SEtLc4w455239CIICwvD0qVL8cgjj2i0LD4+Hn6/H+3t7bh16xZefPFFbN26VQ3k0aNHHeOl552fh3Xr1mmJ2MaNG9HU1IQnnngCTzzxBF5++WVtcyuOW5ox5efna9vwiIgIzJ07V4lNQkICkpOTVYSbnZ3tmPUhzkO0OUyQWYPDJbhiO2TXKbtUvh6cfmAxKIu8mNSZUSV5vUQUTJW4aRw5r89GkckvG1ApjTSjZixeNAlCID2CSZz5fnGrbODnp06d6pgbwUJNdvRMkjndyPe82GuJTMh1kbD4nDlzkJ2d7dCAyL3In8U9Prq7u7X/QHd3t/ZHqKmp0eFIu3btQmNjI/bu3Yv6+nqdDNnf34/Ozk7U1dU5hj5VVFRg3759WPTaIh3JXF9fjz179uDw4cPapOnRRx9VonH27FndOF67dg137tzRSb7S4+DChQtatllYWKit78+ePasRh+HhYbS1tSEvL081YWKLuOosPj7eEcWScz5lyhT1l+yYzQ22kARzB2+mFNyiXqaddbPFHIVi2yzvdyOtHAW2BMESBEsQLEGwBMESBEsQLEG4nyBMmDABFhYWFhbfDDfHHyh1wGLEQOFct3ywOAXTSXC1mZl/NtMTZtpBHnM5szgrIW+iHZk2bRqioqKUEE6dOtWxoeF2wkIIH374YZ2NIN0QGxsbsWfPHlRVVaG6uhrNzc061bazsxNVVVVoa2tDV1eXahd6e3uxe/duRWtrqxIE0Ry0tLTg5MmTmlY+f/68o+2yNNa7c+eOzoyQEkxp6SypkWXLlmH16tVYu3atvv/kyZMYGRnBmjVrkJSUpE5eCJh0YxXhsBAB1tRwtZ+kiExNF296WIvFFYVy7dx0BxMnTnRoDeQ7HnjggYCpByaKJkGVYzNSyWN/01lYWFh8F8DCRLNaQZ4PpLMJRAwCkQU27uxYzB2pPDZLld00BLLTlUgLR4qnTfuqm2RISIhGX7OyshzdMjlqzCWWMv1xYGAAfX196OvrQ2VlpUYThBwcPnwYQ0NDaGtr01LD9vZ2HDx4UMscJYK2b98+pP0oDVu3bsWhQ4fQ39+PgYEBDA4Oqtamo6NDSyzPnj2LV155Ba+88gpGR0e1gmL79u0qciwvL0dtbS1qa2tRVlambe6bm5uVTGzdulVL0EUnw5V7EjkJDQ11lF/zeeZoEZM4t4iPRHTYWTNhZCcfKPLKOgf+N2u6+PVmxMqMUvzfSPHY33QWFhYW3wVYgmAJgiUIFhYWFhb3wa2lspv+gPUMbgSBSUGgf3O+2lSvc16Zw9Ty/UwW3CqDzKoH0eCwo5NKlczMTNWycIphzpw5+jn8XHZ2tqYC+vv70dbWhvb2dvT396OxsRFtbW3o6elBR0cHhoeHcfHiRUf3xO7ubiUHWVlZmD36ZRv04eFh9Pf3o6enRwc7dXd348SJE1rFcOXKFQwNDSkBaWxsxL59+9DR0aFtllevXq0pDGmetHfvXnR1dWHPnj0oLi7WlIEQMCYIklrw+/2O68J6GrMs0u16iH5KHnMVoTh5SQvwZzFR5Oe4Yotf4/Z6/j5zQBNjwljfcBYWFhbfFfw2zZGYCPBzgcS7/Ho25NzXgCMF5me5lTaaOgOBWdYsGgQe9SydWXlAnBCEzMxM1R3IlFsRoEsunrvnVldXo6WlBa2trTh06BAaGhq03bE49eHhYTQ0NCiR2Ldvnwp7PR4PIq58OSdCdvfScZGHLEljJu7HMDAwoOWWfX192LlzJ7Zt24YtW7bosKaGhgYcOnQI3d3dqKur02nC5rnnvih+v99RwuhGtsySRyaQ7LD5tUzcpBxSSKO8J5D+xCx5dNO2mCSAy3KF6JpzRSaM9Q1nYWFh8V2BJQiWIFiCYGFhYWFxH9y6J5qG1+1vX9fqlt9nfhY7HCYR8rzpMNiRyGPWDUjbZAlDi6OTsmwmGPJ+Cat7PB5kZGQoWeAmeNzMSmaUhIWFITk5GStWrNApozU1NdoUqa2tDfv370dHRwdaWlpw5MgRDA4OoqyszFHuHnQhCLGxsQ5dgjQ6On78OLq7u9Hb24ve3l7s27dPBzG1tLRgz549qKmpQUNDA1pbW1FXV4edO3dqVUNzczMOHz6Mnp4eLFy4UM+D/G45DzKcTaatstaAS225HJevCZM1vrZcNcDnPJA2hYmHWbbIDt+NqJiEQr6bdQdSHWEJgoWFhcW3RKCR5hxZkN28W27X1CrwztEkDmzcTf0Av4YJAu9mubcJOy7uNREcHOxosy1kgXPmDK/XqwPwZEKpdM2VY+Kugz6fD3PmzIHX68W6devQ19eHzs5O7Nu3D2VlZaiqqkJdXR2ampowODiI48ePo7CwUIlHUFAQZo182dJ85cqVqKysVGGitLvn7o0tLS1KEKqrq1FRUYE9e/aoVmH//v2orKxU/cLmzZuxdOlSLFq0SMWIPOZ+9uzZ2uI+Pj4eiYmJ93WhNDu2mnMbWCfCUZ5A2gKJSrjpWJgociTJfA0/z3oVXneyjiXqYBLUSZMmYcJY33AWFhYW3xVYgmAJgiUIFhYWFhb3gUvMzBCwEAUz1eDWtY7DwmZIOdDr5bHpgCRNwGkFVtFziFscFFcryGPpcinPc06dSyZFwc+jyFnlz6WVU6d+1XnQ6/Vi48aN2LlzJ1paWlBeXo5NmzZh/fr12LFjB/bu3YuGhgakpKQ4Kgamnv7yM9asWYNt27apdkCIwMGDB9He3o729nYMDw/j8OHDOHz4sFZStLe3a9nlwYMH0dbWpp0XExIStLOtOU9ICIMMNIuOjtbZC25NqYKCghxrwSwtNc8pkwCpaDDLWM3qlMmTJysZ5ZQSr0PzMWtXhMCwloUJLc/LsSkGCwsLi28BjhS4CRPFcHM/BI4ymK1zOYogpW3iFHh3arbMdRMvmqV1bnlo3i2a+gQZhT558mRHyV5QUJBOk502bZpjUqm0nE9ISHA4V7NfgmgUZs2aBY/Hg6SkJBQXF6OsrAy7du3C5s2bUVRUhKKiIoSEhKiGISQkBDPOfTlFcunSpdixYwdqa2uxb98+jSDw+Oa+vj60traitbVVhz11dXWhr68Pu3btQlVVFWprazF//nzMnz/f0XpdSj15JLycN6/Xq+dAWq6HhIQ4HLAZ5ZHfPWXKFD0XPOXUjC4FikCYr3OLHnG5pSliZSEsEwqTIPDrbKtlCwsLi28JSxAsQbAEwcLCwsLiPrCW4JtKHt2qEtipm/ln6dsvIeZAOWrGgw8+qJqCKVOmOBorBSqL5O820wjyuTLATJ6X7wgJCXF8v4y656F1XGYpBCM4OFgHo4WEhCA4OFiHnOXk5GDx4sWIi4tDbGwsgoKCHAPApIohLi4O69atQ0VFBfbv34+2tja0tbXh0KFD6OnpQU9PD2pra1FXV4e6ujocOHAAFRUV2LRpE7Kzs7UCITU1VTUOHPYXsjBt2jQt2QwNDUVERAQSExMdI885lcLDwXgQExMP1iC4dUU01wGnH/gamc223NIV5phxXiusa+Dr6EZGrAbBwsLC4lvAzQiz0zXFi2ZZmgnJKTOhYHLABpxFbOxQeIgTO3U3B8NljLLz5MmCgrCwMP2+8PBwx2exyJF7H0hr5oSEBN1tBwcH6+eIQxW9gkQmIiIiMHv2bISEhKjTltbOQUFBmHF2BsLDwxESEoKYmBgkJCSgqKgI5eXlKC8vR0NDg05/XLVqFQoKClBQUICMjAwVXrKgMiQkRH9DeHi449px6aEcm9frRVhYmKNFtfwmFnQyEZAIgURjWFPA146jSPzdZnRAog6BemaYEQB5LETEJImsgzE1LhxdmDDWN5yFhYXFdwVmlMAcYW7u3ni3blY/cOohEEHghjjsMNgB8O6SnbEbQTAjDPwc73hDQ0P132FhYQ6n5JZKiIiIQEpKClJSUpCQkKApAiYIEl4XgsAVAkIQxHnL9MigoCBMPztdP8vn88Hv92PZsmUoKSlBSUkJampqdDpjUVERFi5ciIULFyItLU0JQnh4uEYyQkJC9DeEhYU5UjdybqZOnaoEITIyEqGhoY4x8px+4aoEwcyZM/UazZo1y7W5kem8AzVNks+Tz+QogBtB4CoZ8zvcSEQggmAjCBYWFhbfAm4EgTUIJkHg3djEiRPV4AfKKTNB4DRBIAfAqnb+XEk5CAmQnT7nn80qBtY/SAWCCY5kMDmRksng4GCkp6dr6iEyMtIx10CIQ1hYmKOzo3QllOfYgU8+OVkJBesaJNzv9/vh8/ng8/kQHR2t5CIiIgIej0e1E7Nnz9ZGTrzrl3MjlRaC8PBwPVbWd7C+gKtIuFqEGyKZegS3JlccGZo4caKD1HGkgVMDJoGU1/P6YKLBa8hN1+D2eMJY33AWFhYW3xWIgRWnbMLMEbv1TXBLMzC5EMPP3RdNASJ/n5tOgSMH7DzEQbHYUVIPQgpMh8MOTsr+ZDcuznXGjBmaVoiOjkZsbCxiY2ORkpKiQ5+io6MRGRmpXRm5LFJ27OKMWRcw6eSX5XkicjRLB0XXEBIS4jgHXM45efJkREREICwsTCMDgsTERCQkJCA+Ph5+vx+xsbHayVFEieLAzVQMpxIYZkTBTVjIhM5NqyDP8bVgJ88Qgiif6aYtMNemmwbCjEZMGOsbzsLCwuK7AjGobuRAdm5mhOGbCIL5Ht7h8c6RDTh/Lht1FsB93a7fJAiyc+ccOO+G2SEKKZAmS7LjFyfNJGDu3LnweDzapjg2NhYxMTHw+Xwa7pcdvTxmrcT06dMxaWiS7vTl+7gagCMLnDKR5+VY5TgYERERjuiD/D8qKkrTGkKcmBiwpoPPvzzmGQ1uBII1CCZxkOvH7+draaYGhDByqsTN2Uv0ideZqTkwicSEsb7hLCwsLL4rYILg5uzFQHNf/EBRA7cdHRME3mEGcvgcKWBHwJoCdjyys5b3svPnkj8uT5Sd+eTJkx27+Dlz5jhy7hJZkPTB9OnTkZSUhJiYGIXMckhLS0NsbCz8fr9qFoR4cCnl1KlT8eCQU/tgphvYGQpJCQkJQXh4OCIiIhAVFYW5c+ciOjoafr8fycnJejySAhHwe2TnLlEDjg4wSWDHyqTKFASaj5nMSCkrawUCaQ2YCPC15+8Q0srrb8qUKQ4ya36PueYsQbCwsLD4FnAzvLzT590dO31Tm2DuBMVAcymb6XzM15nCRLfeCvK82w5behNIDT07taCgIEfUgMkGT4fksj9x6lz3b5YEiugvOjrakeP3eDyIj49HQkICYmNjdSBUdHQ0pg5/KQb0er0amfD5fJrS4HRBTEyMljDOmTPny2mQ//dvPK2SCQhrHuTciV7AdMxC0Pgcsp5BPp/TC0wc+NpxGsRMB5jf51YaaVbSBHrMhILXCP8+JhU2gmBhYWHxv4Bb74NvSiG4aRLY6ZvpAtOImwIz3oUGUrKzen3SpEn3NVwS5yT6Acmxy/cxCeAGPmb4n1/D4X/ZkYvzlfeKYxYNw5w5c7QcUnbvPC46IiJCqxg8Ho+2PJYUgDzP4kez3TMLG4W0SJSBUwdMhFgPwNEXM4LDQlKTILilflik6Pa5nAIyyx3NnhaBCKqZgjKJqPmcvM4t9TBhrG84CwsLi+8Kvg1BMCMJvw1BMFXm7EzYMcjrOLXAUQQOFfOOl3eVQhB4B22W6onDZ60BO1xTECjaACECTCY4dSEOOSQkBKGhoaoVkBSFpADCwsIw89xMjQT4fD7ExsZqlQL3KQgLC3MMijKbFcnvFVLCpZxcsshNj9x0B0wQ+JzzeXKLCLDw0Lym/LnmdTC/ix/z+mIy+U3aF157ZtTAEgQLCwuL/wUCRQXM9IE8zzs9rn5wM+zm7lHKIt1C3W75aXYkXGZn7njl7xJi59y6OAfeTQcHBzucv+y+p0yZokTAFA2yk2YCIikJ7kXAzwcFBTm6GwYHB6tIkclNSEiIIzrAqQ7ekbs5fFPPwE7abITEGgQ5n2Yr5EAO39R+yDHJMXN0hatHmAQyaeBOm/I8v95trQQiDiJsNNeivM+2WrawsLD4lnDbmZkEwVSK83s4z8thXk4LuDVHMqMLgaob3EgEEwTexXLaQHawnGJwy61zikEEheI85b2cg2dBn2gWuBqBmw+5NWAKDg7GxBMT9biFgDAR4GM1d+t83FytIZ9vkrOv0wHw+eeQP2sK3KpITIJgRg3MqJApZjS/jwWq/FuZWDJB4O8w0xMSQQiUCpsw1jechYWFxXcFbnlaBu++3AiCmWJggiBhY7fcs+lAAmkQAkUZ3ERypr6AHaIZLmeRI+/6v4kgmM5ZeieIk2YHzloGLqUUgiCljpK6+CaCIGkMiQpwvwf5fHbe30QQTPJhChBZt8DPm+ffJAi8BkyCYBJFvn7s8M3IUyCCYK4nIa2B1vOEsb7hLCwsLL4rMPsbBGqfbNaVS3rBfD2/xsz/Pvjggw7HZ4rbTOdlkgfu3ue2gxXnKg42KCjIVWvAJYVmVQKH9jlNwI7fzPELCTCFeLyzl2OcPn06ppyaoikP+V52ykFBQQ5H6aan4AFK7OC5vFCIkFtLZQ7Bs+iTr4epWXBL/ZgRIpPEmfqJryMI5vP8fW7rkTss8kRSLn00U2ETxvqGs7CwsPiugPO2pnJcDKupDndz/GzQ+Tnujmi+3s3JsyPknSrnrZkI8PtZ88C5btYMmESAw/L8WRMnTnQ4TU4RsCM3iYYp/JPHTDwkgsClh6yRMCMIXJXATpcjCHLcJhlhcsAlp6aWgCMkbpGdSZMmaZTCvN78Giaa/LkmOfmmlIG5LnjduKW/THLABIEfTxjrG87CwsLiuwJLECxBsATBwsLCwsLC4ncdY34AFhYWFhYWFuMPY34AFhYWFhYWFuMPY34AFhYWFhYWFuMPY34AFhYWFhYWFuMPY34AFhYWFhYWFuMPY34AFhYWFhYWFuMPY34AFhYWFhYWFuMPY34AFhYWFhYWFuMPY34AFhYWFhYWFuMPY34AFhYWFhYWFuMPY34AFhYWFhYWFuMPY34AFhYWFhYWFuMPY34AFhYWFhYWFuMPY34AFhYWFhYWFuMPY34AFhYWFhYWFuMPY34AFhYWFhYWFuMPY34AFhYWFhYWFuMPY34AFhYWFhYWFuMPY34AFhYWFhYWFuMPY34AFhYWFhYWFuMPY34AFhYWFhYWFuMPY34AFhYWFhYWFuMPY34AFhYWFhYWFuMPY34AFhYWFhYWFuMPY34AFhYWFhYWFuMPY34AFhYWFhYWFuMPY34AFhYWFhYWFuMPY34AFhYWFhYWFuMPY34AFhYWFhYWFuMPY34AFhYWFhYWFuMPY34AFhYWFhYWFuMPY34AFhYWFhYWFuMPY34AFhYWFhYWFuMPY34AFhYWFhYWFuMPY34AFhYWFhYW9+GBBx5Adnb2mB/H7zDG/ADGJebOnTvmx2BhYWJoaGjMj8HC4v8Vtm3bhvnz52PWrFljfiy/oxjzAxiXsATBYjzCEgSL3yVs27ZtzI/hdxxjfgAWFhYWFhYW4wz/P0agwMQn/CvXAAAAAElFTkSuQmCC;" vertex="1" parent="1">
          <mxGeometry y="230" width="355" height="150" as="geometry"/>
        </mxCell>
        <mxCell id="wo09McxVOx4tThuS4POu-4" value="&lt;h1&gt;Scanner&lt;br&gt;&lt;/h1&gt;&lt;div&gt;&lt;p&gt;DWI data&lt;/p&gt;&lt;p&gt;T1 data&lt;br&gt;&lt;/p&gt;&lt;/div&gt;" style="text;html=1;strokeColor=none;fillColor=none;spacing=5;spacingTop=-20;whiteSpace=wrap;overflow=hidden;rounded=0;" vertex="1" parent="1">
          <mxGeometry x="400" y="59" width="400" height="95" as="geometry"/>
        </mxCell>
      </root>
    </mxGraphModel>
  </diagram>
</mxfile>
